<svg width="351" height="127" viewBox="0 0 351 127" fill="none" xmlns="http://www.w3.org/2000/svg">
<g clip-path="url(#clip0_704_66908)">
<rect width="350.75" height="127" rx="20" fill="url(#paint0_radial_704_66908)"/>
<g clip-path="url(#clip1_704_66908)">
<path d="M-386.246 144.789L274.742 593.465C345.973 641.816 435.527 629.713 492.889 563.989L1039.19 -61.9766" stroke="url(#paint1_linear_704_66908)" stroke-width="0.687784" stroke-miterlimit="10" stroke-linecap="round"/>
<path d="M-331.201 67.3087L243.14 536.773C305.031 587.364 387.685 584.956 444.468 530.912L985.275 16.1953" stroke="url(#paint2_linear_704_66908)" stroke-width="0.687784" stroke-miterlimit="10" stroke-linecap="round"/>
<path d="M-275.756 2.40625L218.015 482.418C271.224 534.146 346.924 539.859 402.405 496.338L930.814 81.8418" stroke="url(#paint3_linear_704_66908)" stroke-width="0.687784" stroke-miterlimit="10" stroke-linecap="round"/>
<path d="M-220.775 -51.0859L198.662 430.787C243.863 482.715 312.665 495.121 366.259 461.006L876.689 136.094" stroke="url(#paint4_linear_704_66908)" stroke-width="0.687784" stroke-miterlimit="10" stroke-linecap="round"/>
<path d="M-166.978 -94.2812L184.397 382.178C222.262 433.521 284.323 451.328 335.566 425.551L823.623 180.047" stroke="url(#paint5_linear_704_66908)" stroke-width="0.687784" stroke-miterlimit="10" stroke-linecap="round"/>
<path d="M-114.948 -128.258L174.579 336.795C205.78 386.909 261.318 408.962 309.861 390.513L772.201 214.791" stroke="url(#paint6_linear_704_66908)" stroke-width="0.687784" stroke-miterlimit="10" stroke-linecap="round"/>
<path d="M-65.1397 -154.062L168.622 294.755C193.812 343.12 243.108 368.394 288.699 356.322L722.905 241.336" stroke="url(#paint7_linear_704_66908)" stroke-width="0.687784" stroke-miterlimit="10" stroke-linecap="round"/>
<path d="M-17.9061 -172.664L165.967 256.127C185.782 302.335 229.158 329.932 271.628 323.353L676.096 260.69" stroke="url(#paint8_linear_704_66908)" stroke-width="0.687784" stroke-miterlimit="10" stroke-linecap="round"/>
<path d="M26.4941 -185.008L166.099 220.879C181.142 264.617 218.955 293.756 258.207 291.853L632.022 273.731" stroke="url(#paint9_linear_704_66908)" stroke-width="0.687784" stroke-miterlimit="10" stroke-linecap="round"/>
<path d="M67.8961 -191.945L168.563 188.973C179.41 230.02 212.036 260.019 248.036 262.046L590.884 281.336" stroke="url(#paint10_linear_704_66908)" stroke-width="0.687784" stroke-miterlimit="10" stroke-linecap="round"/>
<path d="M106.194 -194.273L172.927 160.311C180.118 198.521 207.946 228.805 240.711 234.078L552.773 284.291" stroke="url(#paint11_linear_704_66908)" stroke-width="0.687784" stroke-miterlimit="10" stroke-linecap="round"/>
<path d="M141.351 -192.719L178.821 134.777C182.86 170.07 206.283 200.151 235.881 208.056L517.757 283.335" stroke="url(#paint12_linear_704_66908)" stroke-width="0.687784" stroke-miterlimit="10" stroke-linecap="round"/>
<path d="M173.377 -187.961L185.898 112.209C187.246 144.554 206.661 174.038 233.185 184.021L485.809 279.116" stroke="url(#paint13_linear_704_66908)" stroke-width="0.687784" stroke-miterlimit="10" stroke-linecap="round"/>
<path d="M202.332 -180.594L193.864 92.446C192.952 121.868 208.739 150.423 232.318 161.998L456.892 272.246" stroke="url(#paint14_linear_704_66908)" stroke-width="0.687784" stroke-miterlimit="10" stroke-linecap="round"/>
<path d="M228.308 -171.148L202.454 75.3143C199.67 101.874 212.202 129.241 232.985 141.977L430.918 263.267" stroke="url(#paint15_linear_704_66908)" stroke-width="0.687784" stroke-miterlimit="10" stroke-linecap="round"/>
<path d="M251.421 -160.117L211.446 60.6205C207.139 84.4079 216.778 110.387 234.928 123.906L407.783 252.655" stroke="url(#paint16_linear_704_66908)" stroke-width="0.687784" stroke-miterlimit="10" stroke-linecap="round"/>
<path d="M271.813 -147.922L220.633 48.1661C215.118 69.2978 222.203 93.7483 237.896 107.724L387.334 240.832" stroke="url(#paint17_linear_704_66908)" stroke-width="0.687784" stroke-miterlimit="10" stroke-linecap="round"/>
<path d="M289.644 -134.93L229.862 37.766C223.421 56.3761 228.275 79.1947 241.688 93.3523L369.436 228.172" stroke="url(#paint18_linear_704_66908)" stroke-width="0.687784" stroke-miterlimit="10" stroke-linecap="round"/>
<path d="M305.074 -121.461L238.982 29.2269C231.86 45.4665 234.784 66.5949 246.102 80.6976L353.911 214.995" stroke="url(#paint19_linear_704_66908)" stroke-width="0.687784" stroke-miterlimit="10" stroke-linecap="round"/>
<path d="M318.286 -107.789L247.884 22.3683C240.297 36.3954 241.569 55.8094 250.98 69.6613L340.602 201.581" stroke="url(#paint20_linear_704_66908)" stroke-width="0.687784" stroke-miterlimit="10" stroke-linecap="round"/>
<path d="M329.449 -94.1406L256.474 17.0081C248.611 28.9842 248.483 46.6908 256.164 60.1339L329.324 188.165" stroke="url(#paint21_linear_704_66908)" stroke-width="0.687784" stroke-miterlimit="10" stroke-linecap="round"/>
<path d="M338.751 -80.7266L264.682 12.9664C256.701 23.0633 255.41 39.083 261.538 51.9936L319.909 174.93" stroke="url(#paint22_linear_704_66908)" stroke-width="0.687784" stroke-miterlimit="10" stroke-linecap="round"/>
<path d="M346.359 -67.6797L272.45 10.0966C264.486 18.4792 262.243 32.8636 266.989 45.1387L312.18 162.049" stroke="url(#paint23_linear_704_66908)" stroke-width="0.687784" stroke-miterlimit="10" stroke-linecap="round"/>
<path d="M352.453 -55.1328L279.746 8.24527C271.911 15.075 268.907 27.8894 272.43 39.4602L305.978 149.654" stroke="url(#paint24_linear_704_66908)" stroke-width="0.687784" stroke-miterlimit="10" stroke-linecap="round"/>
<path d="M357.186 -43.1953L286.531 7.25843C278.918 12.6968 275.321 24.0134 277.772 34.8283L301.124 137.825" stroke="url(#paint25_linear_704_66908)" stroke-width="0.687784" stroke-miterlimit="10" stroke-linecap="round"/>
<path d="M360.719 -31.9375L292.798 7.00732C285.479 11.2055 281.443 21.11 282.965 31.1383L297.475 126.645" stroke="url(#paint26_linear_704_66908)" stroke-width="0.687784" stroke-miterlimit="10" stroke-linecap="round"/>
<path d="M363.203 -21.3984L298.545 7.38418C291.576 10.4864 287.23 19.0717 287.956 28.2995L294.882 116.18" stroke="url(#paint27_linear_704_66908)" stroke-width="0.687784" stroke-miterlimit="10" stroke-linecap="round"/>
<path d="M364.774 -11.6172L303.77 8.27432C297.194 10.4181 292.654 17.7804 292.706 26.2042L293.204 106.454" stroke="url(#paint28_linear_704_66908)" stroke-width="0.687784" stroke-miterlimit="10" stroke-linecap="round"/>
<path d="M365.559 -2.60938L308.485 9.57633C302.335 10.8887 297.695 17.1207 297.185 24.7578L292.317 97.4804" stroke="url(#paint29_linear_704_66908)" stroke-width="0.687784" stroke-miterlimit="10" stroke-linecap="round"/>
<path d="M365.678 5.625L312.708 11.2111C307 11.8123 302.348 17.0137 301.373 23.8812L292.102 89.2759" stroke="url(#paint30_linear_704_66908)" stroke-width="0.687784" stroke-miterlimit="10" stroke-linecap="round"/>
<path d="M365.245 13.0938H316.462C311.207 13.0938 306.606 17.3606 305.261 23.4861L292.45 81.8244" stroke="url(#paint31_linear_704_66908)" stroke-width="0.687784" stroke-miterlimit="10" stroke-linecap="round"/>
<path d="M1051.6 -62.0633L390.608 -510.739C319.377 -559.091 229.823 -546.987 172.461 -481.263L-373.835 144.699" stroke="url(#paint32_linear_704_66908)" stroke-width="0.687784" stroke-miterlimit="10" stroke-linecap="round"/>
<path d="M996.555 15.4192L422.213 -454.045C360.322 -504.636 277.669 -502.228 220.885 -448.184L-319.922 66.536" stroke="url(#paint33_linear_704_66908)" stroke-width="0.687784" stroke-miterlimit="10" stroke-linecap="round"/>
<path d="M941.108 80.3227L447.336 -399.692C394.127 -451.421 318.428 -457.134 262.947 -413.613L-265.465 0.883634" stroke="url(#paint34_linear_704_66908)" stroke-width="0.687784" stroke-miterlimit="10" stroke-linecap="round"/>
<path d="M886.128 133.817L466.691 -348.057C421.49 -399.984 352.688 -412.39 299.094 -378.276L-211.339 -53.3597" stroke="url(#paint35_linear_704_66908)" stroke-width="0.687784" stroke-miterlimit="10" stroke-linecap="round"/>
<path d="M832.333 177.009L480.957 -299.45C443.093 -350.794 381.031 -368.6 329.789 -342.823L-158.268 -97.319" stroke="url(#paint36_linear_704_66908)" stroke-width="0.687784" stroke-miterlimit="10" stroke-linecap="round"/>
<path d="M780.301 210.979L490.773 -254.075C459.573 -304.188 404.035 -326.241 355.492 -307.792L-106.848 -132.07" stroke="url(#paint37_linear_704_66908)" stroke-width="0.687784" stroke-miterlimit="10" stroke-linecap="round"/>
<path d="M730.491 236.781L496.728 -212.036C471.539 -260.401 422.243 -285.676 376.652 -273.604L-57.554 -158.618" stroke="url(#paint38_linear_704_66908)" stroke-width="0.687784" stroke-miterlimit="10" stroke-linecap="round"/>
<path d="M683.261 255.388L499.387 -173.404C479.573 -219.611 436.197 -247.209 393.727 -240.63L-10.7409 -177.966" stroke="url(#paint39_linear_704_66908)" stroke-width="0.687784" stroke-miterlimit="10" stroke-linecap="round"/>
<path d="M638.856 267.73L499.251 -138.157C484.208 -181.894 446.395 -211.034 407.143 -209.131L33.3282 -191.008" stroke="url(#paint40_linear_704_66908)" stroke-width="0.687784" stroke-miterlimit="10" stroke-linecap="round"/>
<path d="M597.454 274.664L496.788 -106.254C485.94 -147.301 453.315 -177.3 417.315 -179.327L74.4663 -198.617" stroke="url(#paint41_linear_704_66908)" stroke-width="0.687784" stroke-miterlimit="10" stroke-linecap="round"/>
<path d="M559.158 276.995L492.425 -77.59C485.234 -115.8 457.405 -146.084 424.64 -151.357L112.579 -201.57" stroke="url(#paint42_linear_704_66908)" stroke-width="0.687784" stroke-miterlimit="10" stroke-linecap="round"/>
<path d="M524.004 275.444L486.533 -52.0515C482.495 -87.3444 459.072 -117.426 429.474 -125.331L147.598 -200.609" stroke="url(#paint43_linear_704_66908)" stroke-width="0.687784" stroke-miterlimit="10" stroke-linecap="round"/>
<path d="M491.975 270.694L479.455 -29.476C478.107 -61.8212 458.692 -91.3046 432.168 -101.288L179.544 -196.383" stroke="url(#paint44_linear_704_66908)" stroke-width="0.687784" stroke-miterlimit="10" stroke-linecap="round"/>
<path d="M463.018 263.317L471.486 -9.72316C472.398 -39.1448 456.611 -67.7006 433.032 -79.2748L208.458 -189.523" stroke="url(#paint45_linear_704_66908)" stroke-width="0.687784" stroke-miterlimit="10" stroke-linecap="round"/>
<path d="M437.046 253.876L462.9 7.41364C465.684 -19.1462 453.152 -46.5134 432.369 -59.2488L234.436 -180.539" stroke="url(#paint46_linear_704_66908)" stroke-width="0.687784" stroke-miterlimit="10" stroke-linecap="round"/>
<path d="M413.93 242.85L453.906 22.1122C458.213 -1.67519 448.574 -27.6544 430.424 -41.1731L257.569 -169.922" stroke="url(#paint47_linear_704_66908)" stroke-width="0.687784" stroke-miterlimit="10" stroke-linecap="round"/>
<path d="M393.537 230.653L444.717 34.5647C450.232 13.4329 443.147 -11.0175 427.454 -24.9931L278.016 -158.102" stroke="url(#paint48_linear_704_66908)" stroke-width="0.687784" stroke-miterlimit="10" stroke-linecap="round"/>
<path d="M375.711 217.656L435.492 44.9603C441.933 26.3502 437.08 3.53165 423.667 -10.626L295.918 -145.445" stroke="url(#paint49_linear_704_66908)" stroke-width="0.687784" stroke-miterlimit="10" stroke-linecap="round"/>
<path d="M360.28 204.19L426.372 53.5021C433.494 37.2625 430.57 16.1342 419.252 2.03148L311.443 -132.266" stroke="url(#paint50_linear_704_66908)" stroke-width="0.687784" stroke-miterlimit="10" stroke-linecap="round"/>
<path d="M347.067 190.511L417.468 60.3534C425.055 46.3263 423.784 26.9123 414.373 13.0604L324.751 -118.859" stroke="url(#paint51_linear_704_66908)" stroke-width="0.687784" stroke-miterlimit="10" stroke-linecap="round"/>
<path d="M335.903 176.876L408.878 65.7268C416.741 53.7507 416.87 36.0442 409.188 22.6011L336.028 -105.43" stroke="url(#paint52_linear_704_66908)" stroke-width="0.687784" stroke-miterlimit="10" stroke-linecap="round"/>
<path d="M326.6 163.445L400.669 69.7522C408.649 59.6553 409.941 43.6356 403.813 30.725L345.442 -92.2109" stroke="url(#paint53_linear_704_66908)" stroke-width="0.687784" stroke-miterlimit="10" stroke-linecap="round"/>
<path d="M318.988 150.408L392.898 72.6318C400.861 64.2492 403.104 49.8648 398.359 37.5897L353.167 -79.3203" stroke="url(#paint54_linear_704_66908)" stroke-width="0.687784" stroke-miterlimit="10" stroke-linecap="round"/>
<path d="M312.902 137.865L385.609 74.4867C393.444 67.6569 396.448 54.8425 392.925 43.2718L359.376 -66.9219" stroke="url(#paint55_linear_704_66908)" stroke-width="0.687784" stroke-miterlimit="10" stroke-linecap="round"/>
<path d="M308.168 125.926L378.823 75.4724C386.435 70.034 390.032 58.7174 387.581 47.9025L364.23 -55.0938" stroke="url(#paint56_linear_704_66908)" stroke-width="0.687784" stroke-miterlimit="10" stroke-linecap="round"/>
<path d="M304.632 114.661L372.554 75.716C379.873 71.5178 383.909 61.6132 382.387 51.585L367.877 -43.9219" stroke="url(#paint57_linear_704_66908)" stroke-width="0.687784" stroke-miterlimit="10" stroke-linecap="round"/>
<path d="M302.15 104.125L366.808 75.3422C373.777 72.24 378.123 63.6547 377.396 54.4269L370.47 -33.4531" stroke="url(#paint58_linear_704_66908)" stroke-width="0.687784" stroke-miterlimit="10" stroke-linecap="round"/>
<path d="M300.581 94.3447L361.586 74.4531C368.161 72.3094 372.701 64.9471 372.65 56.5233L372.151 -23.7266" stroke="url(#paint59_linear_704_66908)" stroke-width="0.687784" stroke-miterlimit="10" stroke-linecap="round"/>
<path d="M299.796 85.3321L356.87 73.1464C363.02 71.834 367.66 65.602 368.17 57.9649L373.039 -14.7578" stroke="url(#paint60_linear_704_66908)" stroke-width="0.687784" stroke-miterlimit="10" stroke-linecap="round"/>
<path d="M299.672 77.1041L352.641 71.518C358.35 70.9168 363.001 65.7154 363.976 58.8479L373.248 -6.54688" stroke="url(#paint61_linear_704_66908)" stroke-width="0.687784" stroke-miterlimit="10" stroke-linecap="round"/>
<path d="M300.107 69.629H348.89C354.146 69.629 358.746 65.3621 360.091 59.2366L372.902 0.898438" stroke="url(#paint62_linear_704_66908)" stroke-width="0.687784" stroke-miterlimit="10" stroke-linecap="round"/>
</g>
</g>
<defs>
<radialGradient id="paint0_radial_704_66908" cx="0" cy="0" r="1" gradientUnits="userSpaceOnUse" gradientTransform="translate(175.06 173.312) rotate(90) scale(110.767 305.917)">
<stop stop-color="#7A7F7A"/>
<stop offset="1" stop-color="#181918"/>
</radialGradient>
<linearGradient id="paint1_linear_704_66908" x1="-369.359" y1="-87.6741" x2="513.779" y2="796.17" gradientUnits="userSpaceOnUse">
<stop offset="0.14" stop-color="#F96058" stop-opacity="0.1"/>
<stop offset="0.62" stop-color="#F96058" stop-opacity="0.5"/>
<stop offset="0.905" stop-color="#F96058" stop-opacity="0.2"/>
</linearGradient>
<linearGradient id="paint2_linear_704_66908" x1="-315.605" y1="-4.70151" x2="396.698" y2="804.933" gradientUnits="userSpaceOnUse">
<stop offset="0.14" stop-color="#F96058" stop-opacity="0.1"/>
<stop offset="0.62" stop-color="#F96058" stop-opacity="0.5"/>
<stop offset="0.905" stop-color="#F96058" stop-opacity="0.2"/>
</linearGradient>
<linearGradient id="paint3_linear_704_66908" x1="-261.462" y1="-17.2195" x2="409.401" y2="726.915" gradientUnits="userSpaceOnUse">
<stop offset="0.14" stop-color="#F96058" stop-opacity="0.1"/>
<stop offset="0.62" stop-color="#F96058" stop-opacity="0.5"/>
<stop offset="0.905" stop-color="#F96058" stop-opacity="0.2"/>
</linearGradient>
<linearGradient id="paint4_linear_704_66908" x1="-207.773" y1="-71.0173" x2="477.186" y2="609.453" gradientUnits="userSpaceOnUse">
<stop offset="0.14" stop-color="#F96058" stop-opacity="0.1"/>
<stop offset="0.62" stop-color="#F96058" stop-opacity="0.5"/>
<stop offset="0.905" stop-color="#F96058" stop-opacity="0.2"/>
</linearGradient>
<linearGradient id="paint5_linear_704_66908" x1="-155.243" y1="-114.225" x2="526.052" y2="496.327" gradientUnits="userSpaceOnUse">
<stop offset="0.14" stop-color="#F96058" stop-opacity="0.1"/>
<stop offset="0.62" stop-color="#F96058" stop-opacity="0.5"/>
<stop offset="0.905" stop-color="#F96058" stop-opacity="0.2"/>
</linearGradient>
<linearGradient id="paint6_linear_704_66908" x1="-104.438" y1="-147.965" x2="558.427" y2="390.428" gradientUnits="userSpaceOnUse">
<stop offset="0.14" stop-color="#F96058" stop-opacity="0.1"/>
<stop offset="0.62" stop-color="#F96058" stop-opacity="0.5"/>
<stop offset="0.905" stop-color="#F96058" stop-opacity="0.2"/>
</linearGradient>
<linearGradient id="paint7_linear_704_66908" x1="-55.8037" y1="-173.324" x2="576.784" y2="293.617" gradientUnits="userSpaceOnUse">
<stop offset="0.14" stop-color="#F96058" stop-opacity="0.1"/>
<stop offset="0.62" stop-color="#F96058" stop-opacity="0.5"/>
<stop offset="0.905" stop-color="#F96058" stop-opacity="0.2"/>
</linearGradient>
<linearGradient id="paint8_linear_704_66908" x1="-9.68412" y1="-191.311" x2="583.485" y2="207.001" gradientUnits="userSpaceOnUse">
<stop offset="0.14" stop-color="#F96058" stop-opacity="0.1"/>
<stop offset="0.62" stop-color="#F96058" stop-opacity="0.5"/>
<stop offset="0.905" stop-color="#F96058" stop-opacity="0.2"/>
</linearGradient>
<linearGradient id="paint9_linear_704_66908" x1="33.6679" y1="-202.903" x2="580.7" y2="131.061" gradientUnits="userSpaceOnUse">
<stop offset="0.14" stop-color="#F96058" stop-opacity="0.1"/>
<stop offset="0.62" stop-color="#F96058" stop-opacity="0.5"/>
<stop offset="0.905" stop-color="#F96058" stop-opacity="0.2"/>
</linearGradient>
<linearGradient id="paint10_linear_704_66908" x1="74.092" y1="-209.703" x2="579.849" y2="59.0414" gradientUnits="userSpaceOnUse">
<stop offset="0.14" stop-color="#F96058" stop-opacity="0.1"/>
<stop offset="0.62" stop-color="#F96058" stop-opacity="0.5"/>
<stop offset="0.905" stop-color="#F96058" stop-opacity="0.2"/>
</linearGradient>
<linearGradient id="paint11_linear_704_66908" x1="111.484" y1="-212.229" x2="572.467" y2="-5.37385" gradientUnits="userSpaceOnUse">
<stop offset="0.14" stop-color="#F96058" stop-opacity="0.1"/>
<stop offset="0.62" stop-color="#F96058" stop-opacity="0.5"/>
<stop offset="0.905" stop-color="#F96058" stop-opacity="0.2"/>
</linearGradient>
<linearGradient id="paint12_linear_704_66908" x1="145.81" y1="-210.58" x2="553.637" y2="-55.52" gradientUnits="userSpaceOnUse">
<stop offset="0.14" stop-color="#F96058" stop-opacity="0.1"/>
<stop offset="0.62" stop-color="#F96058" stop-opacity="0.5"/>
<stop offset="0.905" stop-color="#F96058" stop-opacity="0.2"/>
</linearGradient>
<linearGradient id="paint13_linear_704_66908" x1="177.079" y1="-205.486" x2="528.199" y2="-92.546" gradientUnits="userSpaceOnUse">
<stop offset="0.14" stop-color="#F96058" stop-opacity="0.1"/>
<stop offset="0.62" stop-color="#F96058" stop-opacity="0.5"/>
<stop offset="0.905" stop-color="#F96058" stop-opacity="0.2"/>
</linearGradient>
<linearGradient id="paint14_linear_704_66908" x1="196.943" y1="-197.584" x2="499.557" y2="-113.05" gradientUnits="userSpaceOnUse">
<stop offset="0.14" stop-color="#F96058" stop-opacity="0.1"/>
<stop offset="0.62" stop-color="#F96058" stop-opacity="0.5"/>
<stop offset="0.905" stop-color="#F96058" stop-opacity="0.2"/>
</linearGradient>
<linearGradient id="paint15_linear_704_66908" x1="204.78" y1="-187.448" x2="471.464" y2="-119.892" gradientUnits="userSpaceOnUse">
<stop offset="0.14" stop-color="#F96058" stop-opacity="0.1"/>
<stop offset="0.62" stop-color="#F96058" stop-opacity="0.5"/>
<stop offset="0.905" stop-color="#F96058" stop-opacity="0.2"/>
</linearGradient>
<linearGradient id="paint16_linear_704_66908" x1="212.765" y1="-175.605" x2="445.219" y2="-122.16" gradientUnits="userSpaceOnUse">
<stop offset="0.14" stop-color="#F96058" stop-opacity="0.1"/>
<stop offset="0.62" stop-color="#F96058" stop-opacity="0.5"/>
<stop offset="0.905" stop-color="#F96058" stop-opacity="0.2"/>
</linearGradient>
<linearGradient id="paint17_linear_704_66908" x1="220.775" y1="-162.508" x2="421.094" y2="-120.743" gradientUnits="userSpaceOnUse">
<stop offset="0.14" stop-color="#F96058" stop-opacity="0.1"/>
<stop offset="0.62" stop-color="#F96058" stop-opacity="0.5"/>
<stop offset="0.905" stop-color="#F96058" stop-opacity="0.2"/>
</linearGradient>
<linearGradient id="paint18_linear_704_66908" x1="228.727" y1="-148.553" x2="399.249" y2="-116.396" gradientUnits="userSpaceOnUse">
<stop offset="0.14" stop-color="#F96058" stop-opacity="0.1"/>
<stop offset="0.62" stop-color="#F96058" stop-opacity="0.5"/>
<stop offset="0.905" stop-color="#F96058" stop-opacity="0.2"/>
</linearGradient>
<linearGradient id="paint19_linear_704_66908" x1="236.526" y1="-134.085" x2="379.714" y2="-109.774" gradientUnits="userSpaceOnUse">
<stop offset="0.14" stop-color="#F96058" stop-opacity="0.1"/>
<stop offset="0.62" stop-color="#F96058" stop-opacity="0.5"/>
<stop offset="0.905" stop-color="#F96058" stop-opacity="0.2"/>
</linearGradient>
<linearGradient id="paint20_linear_704_66908" x1="244.11" y1="-119.397" x2="362.478" y2="-101.431" gradientUnits="userSpaceOnUse">
<stop offset="0.14" stop-color="#F96058" stop-opacity="0.1"/>
<stop offset="0.62" stop-color="#F96058" stop-opacity="0.5"/>
<stop offset="0.905" stop-color="#F96058" stop-opacity="0.2"/>
</linearGradient>
<linearGradient id="paint21_linear_704_66908" x1="251.424" y1="-104.733" x2="347.604" y2="-91.7969" gradientUnits="userSpaceOnUse">
<stop offset="0.14" stop-color="#F96058" stop-opacity="0.1"/>
<stop offset="0.62" stop-color="#F96058" stop-opacity="0.5"/>
<stop offset="0.905" stop-color="#F96058" stop-opacity="0.2"/>
</linearGradient>
<linearGradient id="paint22_linear_704_66908" x1="258.649" y1="-90.3189" x2="356.891" y2="-75.3399" gradientUnits="userSpaceOnUse">
<stop offset="0.14" stop-color="#F96058" stop-opacity="0.1"/>
<stop offset="0.62" stop-color="#F96058" stop-opacity="0.5"/>
<stop offset="0.905" stop-color="#F96058" stop-opacity="0.2"/>
</linearGradient>
<linearGradient id="paint23_linear_704_66908" x1="265.489" y1="-76.2992" x2="364.085" y2="-59.4091" gradientUnits="userSpaceOnUse">
<stop offset="0.14" stop-color="#F96058" stop-opacity="0.1"/>
<stop offset="0.62" stop-color="#F96058" stop-opacity="0.5"/>
<stop offset="0.905" stop-color="#F96058" stop-opacity="0.2"/>
</linearGradient>
<linearGradient id="paint24_linear_704_66908" x1="271.934" y1="-62.8165" x2="369.414" y2="-44.1649" gradientUnits="userSpaceOnUse">
<stop offset="0.14" stop-color="#F96058" stop-opacity="0.1"/>
<stop offset="0.62" stop-color="#F96058" stop-opacity="0.5"/>
<stop offset="0.905" stop-color="#F96058" stop-opacity="0.2"/>
</linearGradient>
<linearGradient id="paint25_linear_704_66908" x1="277.959" y1="-49.9872" x2="373.072" y2="-29.73" gradientUnits="userSpaceOnUse">
<stop offset="0.14" stop-color="#F96058" stop-opacity="0.1"/>
<stop offset="0.62" stop-color="#F96058" stop-opacity="0.5"/>
<stop offset="0.905" stop-color="#F96058" stop-opacity="0.2"/>
</linearGradient>
<linearGradient id="paint26_linear_704_66908" x1="283.571" y1="-37.8876" x2="375.252" y2="-16.1831" gradientUnits="userSpaceOnUse">
<stop offset="0.14" stop-color="#F96058" stop-opacity="0.1"/>
<stop offset="0.62" stop-color="#F96058" stop-opacity="0.5"/>
<stop offset="0.905" stop-color="#F96058" stop-opacity="0.2"/>
</linearGradient>
<linearGradient id="paint27_linear_704_66908" x1="288.77" y1="-26.5604" x2="376.126" y2="-3.56131" gradientUnits="userSpaceOnUse">
<stop offset="0.14" stop-color="#F96058" stop-opacity="0.1"/>
<stop offset="0.62" stop-color="#F96058" stop-opacity="0.5"/>
<stop offset="0.905" stop-color="#F96058" stop-opacity="0.2"/>
</linearGradient>
<linearGradient id="paint28_linear_704_66908" x1="293.559" y1="-16.0473" x2="375.843" y2="8.10432" gradientUnits="userSpaceOnUse">
<stop offset="0.14" stop-color="#F96058" stop-opacity="0.1"/>
<stop offset="0.62" stop-color="#F96058" stop-opacity="0.5"/>
<stop offset="0.905" stop-color="#F96058" stop-opacity="0.2"/>
</linearGradient>
<linearGradient id="paint29_linear_704_66908" x1="293.184" y1="-6.36478" x2="374.006" y2="22.0749" gradientUnits="userSpaceOnUse">
<stop offset="0.14" stop-color="#F96058" stop-opacity="0.1"/>
<stop offset="0.62" stop-color="#F96058" stop-opacity="0.5"/>
<stop offset="0.905" stop-color="#F96058" stop-opacity="0.2"/>
</linearGradient>
<linearGradient id="paint30_linear_704_66908" x1="292.974" y1="2.48639" x2="370.37" y2="35.2215" gradientUnits="userSpaceOnUse">
<stop offset="0.14" stop-color="#F96058" stop-opacity="0.1"/>
<stop offset="0.62" stop-color="#F96058" stop-opacity="0.5"/>
<stop offset="0.905" stop-color="#F96058" stop-opacity="0.2"/>
</linearGradient>
<linearGradient id="paint31_linear_704_66908" x1="293.312" y1="10.515" x2="364.993" y2="47.0221" gradientUnits="userSpaceOnUse">
<stop offset="0.14" stop-color="#F96058" stop-opacity="0.1"/>
<stop offset="0.62" stop-color="#F96058" stop-opacity="0.5"/>
<stop offset="0.905" stop-color="#F96058" stop-opacity="0.2"/>
</linearGradient>
<linearGradient id="paint32_linear_704_66908" x1="-356.948" y1="-565.893" x2="526.186" y2="317.951" gradientUnits="userSpaceOnUse">
<stop offset="0.14" stop-color="#F96058" stop-opacity="0.1"/>
<stop offset="0.62" stop-color="#F96058" stop-opacity="0.5"/>
<stop offset="0.905" stop-color="#F96058" stop-opacity="0.2"/>
</linearGradient>
<linearGradient id="paint33_linear_704_66908" x1="-304.325" y1="-511.311" x2="407.982" y2="298.324" gradientUnits="userSpaceOnUse">
<stop offset="0.14" stop-color="#F96058" stop-opacity="0.1"/>
<stop offset="0.62" stop-color="#F96058" stop-opacity="0.5"/>
<stop offset="0.905" stop-color="#F96058" stop-opacity="0.2"/>
</linearGradient>
<linearGradient id="paint34_linear_704_66908" x1="-251.17" y1="-462.376" x2="419.697" y2="281.761" gradientUnits="userSpaceOnUse">
<stop offset="0.14" stop-color="#F96058" stop-opacity="0.1"/>
<stop offset="0.62" stop-color="#F96058" stop-opacity="0.5"/>
<stop offset="0.905" stop-color="#F96058" stop-opacity="0.2"/>
</linearGradient>
<linearGradient id="paint35_linear_704_66908" x1="-198.337" y1="-417.33" x2="486.622" y2="263.142" gradientUnits="userSpaceOnUse">
<stop offset="0.14" stop-color="#F96058" stop-opacity="0.1"/>
<stop offset="0.62" stop-color="#F96058" stop-opacity="0.5"/>
<stop offset="0.905" stop-color="#F96058" stop-opacity="0.2"/>
</linearGradient>
<linearGradient id="paint36_linear_704_66908" x1="-146.532" y1="-374.475" x2="534.763" y2="236.077" gradientUnits="userSpaceOnUse">
<stop offset="0.14" stop-color="#F96058" stop-opacity="0.1"/>
<stop offset="0.62" stop-color="#F96058" stop-opacity="0.5"/>
<stop offset="0.905" stop-color="#F96058" stop-opacity="0.2"/>
</linearGradient>
<linearGradient id="paint37_linear_704_66908" x1="-96.3381" y1="-333.957" x2="566.528" y2="204.436" gradientUnits="userSpaceOnUse">
<stop offset="0.14" stop-color="#F96058" stop-opacity="0.1"/>
<stop offset="0.62" stop-color="#F96058" stop-opacity="0.5"/>
<stop offset="0.905" stop-color="#F96058" stop-opacity="0.2"/>
</linearGradient>
<linearGradient id="paint38_linear_704_66908" x1="-48.2179" y1="-295.856" x2="584.37" y2="171.086" gradientUnits="userSpaceOnUse">
<stop offset="0.14" stop-color="#F96058" stop-opacity="0.1"/>
<stop offset="0.62" stop-color="#F96058" stop-opacity="0.5"/>
<stop offset="0.905" stop-color="#F96058" stop-opacity="0.2"/>
</linearGradient>
<linearGradient id="paint39_linear_704_66908" x1="-2.51896" y1="-260.241" x2="590.65" y2="138.071" gradientUnits="userSpaceOnUse">
<stop offset="0.14" stop-color="#F96058" stop-opacity="0.1"/>
<stop offset="0.62" stop-color="#F96058" stop-opacity="0.5"/>
<stop offset="0.905" stop-color="#F96058" stop-opacity="0.2"/>
</linearGradient>
<linearGradient id="paint40_linear_704_66908" x1="40.502" y1="-227.114" x2="587.534" y2="106.85" gradientUnits="userSpaceOnUse">
<stop offset="0.14" stop-color="#F96058" stop-opacity="0.1"/>
<stop offset="0.62" stop-color="#F96058" stop-opacity="0.5"/>
<stop offset="0.905" stop-color="#F96058" stop-opacity="0.2"/>
</linearGradient>
<linearGradient id="paint41_linear_704_66908" x1="80.6623" y1="-216.375" x2="586.419" y2="52.3695" gradientUnits="userSpaceOnUse">
<stop offset="0.14" stop-color="#F96058" stop-opacity="0.1"/>
<stop offset="0.62" stop-color="#F96058" stop-opacity="0.5"/>
<stop offset="0.905" stop-color="#F96058" stop-opacity="0.2"/>
</linearGradient>
<linearGradient id="paint42_linear_704_66908" x1="117.87" y1="-219.526" x2="578.853" y2="-12.6707" gradientUnits="userSpaceOnUse">
<stop offset="0.14" stop-color="#F96058" stop-opacity="0.1"/>
<stop offset="0.62" stop-color="#F96058" stop-opacity="0.5"/>
<stop offset="0.905" stop-color="#F96058" stop-opacity="0.2"/>
</linearGradient>
<linearGradient id="paint43_linear_704_66908" x1="152.058" y1="-218.471" x2="559.884" y2="-63.4106" gradientUnits="userSpaceOnUse">
<stop offset="0.14" stop-color="#F96058" stop-opacity="0.1"/>
<stop offset="0.62" stop-color="#F96058" stop-opacity="0.5"/>
<stop offset="0.905" stop-color="#F96058" stop-opacity="0.2"/>
</linearGradient>
<linearGradient id="paint44_linear_704_66908" x1="183.245" y1="-213.908" x2="534.365" y2="-100.968" gradientUnits="userSpaceOnUse">
<stop offset="0.14" stop-color="#F96058" stop-opacity="0.1"/>
<stop offset="0.62" stop-color="#F96058" stop-opacity="0.5"/>
<stop offset="0.905" stop-color="#F96058" stop-opacity="0.2"/>
</linearGradient>
<linearGradient id="paint45_linear_704_66908" x1="211.575" y1="-206.514" x2="514.189" y2="-121.98" gradientUnits="userSpaceOnUse">
<stop offset="0.14" stop-color="#F96058" stop-opacity="0.1"/>
<stop offset="0.62" stop-color="#F96058" stop-opacity="0.5"/>
<stop offset="0.905" stop-color="#F96058" stop-opacity="0.2"/>
</linearGradient>
<linearGradient id="paint46_linear_704_66908" x1="237.147" y1="-196.838" x2="503.83" y2="-129.282" gradientUnits="userSpaceOnUse">
<stop offset="0.14" stop-color="#F96058" stop-opacity="0.1"/>
<stop offset="0.62" stop-color="#F96058" stop-opacity="0.5"/>
<stop offset="0.905" stop-color="#F96058" stop-opacity="0.2"/>
</linearGradient>
<linearGradient id="paint47_linear_704_66908" x1="259.907" y1="-185.409" x2="492.361" y2="-131.965" gradientUnits="userSpaceOnUse">
<stop offset="0.14" stop-color="#F96058" stop-opacity="0.1"/>
<stop offset="0.62" stop-color="#F96058" stop-opacity="0.5"/>
<stop offset="0.905" stop-color="#F96058" stop-opacity="0.2"/>
</linearGradient>
<linearGradient id="paint48_linear_704_66908" x1="280.013" y1="-172.688" x2="480.332" y2="-130.922" gradientUnits="userSpaceOnUse">
<stop offset="0.14" stop-color="#F96058" stop-opacity="0.1"/>
<stop offset="0.62" stop-color="#F96058" stop-opacity="0.5"/>
<stop offset="0.905" stop-color="#F96058" stop-opacity="0.2"/>
</linearGradient>
<linearGradient id="paint49_linear_704_66908" x1="297.605" y1="-159.069" x2="468.127" y2="-126.912" gradientUnits="userSpaceOnUse">
<stop offset="0.14" stop-color="#F96058" stop-opacity="0.1"/>
<stop offset="0.62" stop-color="#F96058" stop-opacity="0.5"/>
<stop offset="0.905" stop-color="#F96058" stop-opacity="0.2"/>
</linearGradient>
<linearGradient id="paint50_linear_704_66908" x1="312.851" y1="-144.89" x2="456.039" y2="-120.579" gradientUnits="userSpaceOnUse">
<stop offset="0.14" stop-color="#F96058" stop-opacity="0.1"/>
<stop offset="0.62" stop-color="#F96058" stop-opacity="0.5"/>
<stop offset="0.905" stop-color="#F96058" stop-opacity="0.2"/>
</linearGradient>
<linearGradient id="paint51_linear_704_66908" x1="325.907" y1="-130.467" x2="444.276" y2="-112.501" gradientUnits="userSpaceOnUse">
<stop offset="0.14" stop-color="#F96058" stop-opacity="0.1"/>
<stop offset="0.62" stop-color="#F96058" stop-opacity="0.5"/>
<stop offset="0.905" stop-color="#F96058" stop-opacity="0.2"/>
</linearGradient>
<linearGradient id="paint52_linear_704_66908" x1="336.838" y1="-116.022" x2="433.018" y2="-103.086" gradientUnits="userSpaceOnUse">
<stop offset="0.14" stop-color="#F96058" stop-opacity="0.1"/>
<stop offset="0.62" stop-color="#F96058" stop-opacity="0.5"/>
<stop offset="0.905" stop-color="#F96058" stop-opacity="0.2"/>
</linearGradient>
<linearGradient id="paint53_linear_704_66908" x1="327.56" y1="-101.803" x2="425.802" y2="-86.8243" gradientUnits="userSpaceOnUse">
<stop offset="0.14" stop-color="#F96058" stop-opacity="0.1"/>
<stop offset="0.62" stop-color="#F96058" stop-opacity="0.5"/>
<stop offset="0.905" stop-color="#F96058" stop-opacity="0.2"/>
</linearGradient>
<linearGradient id="paint54_linear_704_66908" x1="319.958" y1="-87.9398" x2="418.554" y2="-71.0497" gradientUnits="userSpaceOnUse">
<stop offset="0.14" stop-color="#F96058" stop-opacity="0.1"/>
<stop offset="0.62" stop-color="#F96058" stop-opacity="0.5"/>
<stop offset="0.905" stop-color="#F96058" stop-opacity="0.2"/>
</linearGradient>
<linearGradient id="paint55_linear_704_66908" x1="313.867" y1="-74.6055" x2="411.348" y2="-55.9539" gradientUnits="userSpaceOnUse">
<stop offset="0.14" stop-color="#F96058" stop-opacity="0.1"/>
<stop offset="0.62" stop-color="#F96058" stop-opacity="0.5"/>
<stop offset="0.905" stop-color="#F96058" stop-opacity="0.2"/>
</linearGradient>
<linearGradient id="paint56_linear_704_66908" x1="309.118" y1="-61.8857" x2="404.23" y2="-41.6284" gradientUnits="userSpaceOnUse">
<stop offset="0.14" stop-color="#F96058" stop-opacity="0.1"/>
<stop offset="0.62" stop-color="#F96058" stop-opacity="0.5"/>
<stop offset="0.905" stop-color="#F96058" stop-opacity="0.2"/>
</linearGradient>
<linearGradient id="paint57_linear_704_66908" x1="305.557" y1="-49.8719" x2="397.238" y2="-28.1675" gradientUnits="userSpaceOnUse">
<stop offset="0.14" stop-color="#F96058" stop-opacity="0.1"/>
<stop offset="0.62" stop-color="#F96058" stop-opacity="0.5"/>
<stop offset="0.905" stop-color="#F96058" stop-opacity="0.2"/>
</linearGradient>
<linearGradient id="paint58_linear_704_66908" x1="303.042" y1="-38.6151" x2="390.398" y2="-15.616" gradientUnits="userSpaceOnUse">
<stop offset="0.14" stop-color="#F96058" stop-opacity="0.1"/>
<stop offset="0.62" stop-color="#F96058" stop-opacity="0.5"/>
<stop offset="0.905" stop-color="#F96058" stop-opacity="0.2"/>
</linearGradient>
<linearGradient id="paint59_linear_704_66908" x1="301.435" y1="-28.1566" x2="383.719" y2="-4.00511" gradientUnits="userSpaceOnUse">
<stop offset="0.14" stop-color="#F96058" stop-opacity="0.1"/>
<stop offset="0.62" stop-color="#F96058" stop-opacity="0.5"/>
<stop offset="0.905" stop-color="#F96058" stop-opacity="0.2"/>
</linearGradient>
<linearGradient id="paint60_linear_704_66908" x1="300.663" y1="-18.5132" x2="381.485" y2="9.92646" gradientUnits="userSpaceOnUse">
<stop offset="0.14" stop-color="#F96058" stop-opacity="0.1"/>
<stop offset="0.62" stop-color="#F96058" stop-opacity="0.5"/>
<stop offset="0.905" stop-color="#F96058" stop-opacity="0.2"/>
</linearGradient>
<linearGradient id="paint61_linear_704_66908" x1="300.543" y1="-9.68549" x2="377.94" y2="23.0496" gradientUnits="userSpaceOnUse">
<stop offset="0.14" stop-color="#F96058" stop-opacity="0.1"/>
<stop offset="0.62" stop-color="#F96058" stop-opacity="0.5"/>
<stop offset="0.905" stop-color="#F96058" stop-opacity="0.2"/>
</linearGradient>
<linearGradient id="paint62_linear_704_66908" x1="300.97" y1="-1.68036" x2="372.65" y2="34.8268" gradientUnits="userSpaceOnUse">
<stop offset="0.14" stop-color="#F96058" stop-opacity="0.1"/>
<stop offset="0.62" stop-color="#F96058" stop-opacity="0.5"/>
<stop offset="0.905" stop-color="#F96058" stop-opacity="0.2"/>
</linearGradient>
<clipPath id="clip0_704_66908">
<rect width="350.75" height="127" rx="20" fill="white"/>
</clipPath>
<clipPath id="clip1_704_66908">
<rect width="397.467" height="156.514" fill="white" transform="translate(-24.4709 -14.3125)"/>
</clipPath>
</defs>
</svg>
