<svg width="353" height="130" viewBox="0 0 353 130" fill="none" xmlns="http://www.w3.org/2000/svg">
<g opacity="0.1">
<path d="M17 24C17 15.1634 24.1634 8 33 8H327C335.837 8 343 15.1634 343 24V98C343 106.837 335.837 114 327 114H33C24.1635 114 17 106.837 17 98V24Z" fill="url(#paint0_linear_683_56525)"/>
<rect x="41" y="29" width="67" height="67" rx="33.5" fill="#1B1C1E"/>
<path d="M68.8552 71V55.0216H75.5683C76.5263 55.0216 77.3484 55.1932 78.0347 55.5363C78.7354 55.8795 79.2715 56.3657 79.6433 56.9948C80.0294 57.6096 80.2224 58.346 80.2224 59.2039C80.2224 59.9903 80.0151 60.7052 79.6004 61.3486C79.2 61.9777 78.6067 62.471 77.8203 62.8285L77.7988 62.0349C78.4851 62.2923 79.0499 62.6355 79.4932 63.0644C79.9507 63.4791 80.2939 63.9652 80.5226 64.5229C80.7514 65.0662 80.8658 65.6453 80.8658 66.2601C80.8658 67.7328 80.394 68.891 79.4503 69.7346C78.5066 70.5782 77.2197 71 75.5897 71H68.8552ZM70.9571 69.0697H75.6755C76.6049 69.0697 77.3484 68.8195 77.906 68.3191C78.4637 67.8186 78.7425 67.1394 78.7425 66.2815C78.7425 65.4236 78.4637 64.7445 77.906 64.244C77.3484 63.7293 76.6049 63.4719 75.6755 63.4719H70.9571V69.0697ZM70.9571 61.5845H75.5254C76.2975 61.5845 76.9195 61.3629 77.3913 60.9197C77.8632 60.4621 78.0991 59.883 78.0991 59.1824C78.0991 58.4532 77.8632 57.8956 77.3913 57.5095C76.9195 57.1235 76.2975 56.9304 75.5254 56.9304H70.9571V61.5845Z" fill="#FDFDFE"/>
<path d="M133.44 49V34.1H139.72C140.707 34.1 141.547 34.2733 142.24 34.62C142.947 34.9533 143.487 35.4333 143.86 36.06C144.247 36.6733 144.44 37.42 144.44 38.3C144.44 38.98 144.253 39.62 143.88 40.22C143.52 40.8067 142.94 41.2933 142.14 41.68V40.42C142.873 40.7 143.453 41.0467 143.88 41.46C144.307 41.8733 144.607 42.3333 144.78 42.84C144.953 43.3467 145.04 43.88 145.04 44.44C145.04 45.8667 144.567 46.9867 143.62 47.8C142.687 48.6 141.387 49 139.72 49H133.44ZM136.16 46.6H140C140.707 46.6 141.267 46.4067 141.68 46.02C142.107 45.62 142.32 45.0933 142.32 44.44C142.32 43.7867 142.107 43.26 141.68 42.86C141.267 42.46 140.707 42.26 140 42.26H136.16V46.6ZM136.16 39.88H139.86C140.42 39.88 140.867 39.72 141.2 39.4C141.533 39.0667 141.7 38.64 141.7 38.12C141.7 37.6 141.533 37.1867 141.2 36.88C140.867 36.5733 140.42 36.42 139.86 36.42H136.16V39.88ZM152.208 49.24C151.088 49.24 150.108 48.9867 149.268 48.48C148.428 47.9733 147.775 47.2867 147.308 46.42C146.841 45.5533 146.608 44.5933 146.608 43.54C146.608 42.4467 146.841 41.48 147.308 40.64C147.788 39.7867 148.435 39.1133 149.248 38.62C150.075 38.1267 150.995 37.88 152.008 37.88C152.861 37.88 153.608 38.02 154.248 38.3C154.901 38.58 155.455 38.9667 155.908 39.46C156.361 39.9533 156.708 40.52 156.948 41.16C157.188 41.7867 157.308 42.4667 157.308 43.2C157.308 43.3867 157.295 43.58 157.268 43.78C157.255 43.98 157.221 44.1533 157.168 44.3H148.768V42.3H155.688L154.448 43.24C154.568 42.6267 154.535 42.08 154.348 41.6C154.175 41.12 153.881 40.74 153.468 40.46C153.068 40.18 152.581 40.04 152.008 40.04C151.461 40.04 150.975 40.18 150.548 40.46C150.121 40.7267 149.795 41.1267 149.568 41.66C149.355 42.18 149.275 42.8133 149.328 43.56C149.275 44.2267 149.361 44.82 149.588 45.34C149.828 45.8467 150.175 46.24 150.628 46.52C151.095 46.8 151.628 46.94 152.228 46.94C152.828 46.94 153.335 46.8133 153.748 46.56C154.175 46.3067 154.508 45.9667 154.748 45.54L156.868 46.58C156.655 47.1 156.321 47.56 155.868 47.96C155.415 48.36 154.875 48.6733 154.248 48.9C153.635 49.1267 152.955 49.24 152.208 49.24ZM159.294 49V38.12H161.754V40.26L161.554 39.88C161.808 39.2267 162.221 38.7333 162.794 38.4C163.381 38.0533 164.061 37.88 164.834 37.88C165.634 37.88 166.341 38.0533 166.954 38.4C167.581 38.7467 168.068 39.2333 168.414 39.86C168.761 40.4733 168.934 41.1867 168.934 42V49H166.314V42.62C166.314 42.14 166.221 41.7267 166.034 41.38C165.848 41.0333 165.588 40.7667 165.254 40.58C164.934 40.38 164.554 40.28 164.114 40.28C163.688 40.28 163.308 40.38 162.974 40.58C162.641 40.7667 162.381 41.0333 162.194 41.38C162.008 41.7267 161.914 42.14 161.914 42.62V49H159.294ZM169.65 53.42C169.476 53.42 169.296 53.4133 169.11 53.4C168.923 53.3867 168.77 53.3667 168.65 53.34V51.06C168.89 51.1 169.13 51.12 169.37 51.12C169.93 51.12 170.363 50.9867 170.67 50.72C170.99 50.4667 171.15 50.0733 171.15 49.54V38.12H173.77V49.54C173.77 50.3667 173.603 51.0667 173.27 51.64C172.936 52.2267 172.456 52.6667 171.83 52.96C171.216 53.2667 170.49 53.42 169.65 53.42ZM171.15 36.9V34.1H173.77V36.9H171.15ZM179.489 49.24C178.729 49.24 178.069 49.1133 177.509 48.86C176.949 48.6067 176.515 48.2467 176.209 47.78C175.902 47.3 175.749 46.7467 175.749 46.12C175.749 45.52 175.882 44.9867 176.149 44.52C176.415 44.04 176.829 43.64 177.389 43.32C177.949 43 178.655 42.7733 179.509 42.64L183.069 42.06V44.06L180.009 44.58C179.489 44.6733 179.102 44.84 178.849 45.08C178.595 45.32 178.469 45.6333 178.469 46.02C178.469 46.3933 178.609 46.6933 178.889 46.92C179.182 47.1333 179.542 47.24 179.969 47.24C180.515 47.24 180.995 47.1267 181.409 46.9C181.835 46.66 182.162 46.3333 182.389 45.92C182.629 45.5067 182.749 45.0533 182.749 44.56V41.76C182.749 41.2933 182.562 40.9067 182.189 40.6C181.829 40.28 181.349 40.12 180.749 40.12C180.189 40.12 179.689 40.2733 179.249 40.58C178.822 40.8733 178.509 41.2667 178.309 41.76L176.169 40.72C176.382 40.1467 176.715 39.6533 177.169 39.24C177.635 38.8133 178.182 38.48 178.809 38.24C179.435 38 180.115 37.88 180.849 37.88C181.742 37.88 182.529 38.0467 183.209 38.38C183.889 38.7 184.415 39.1533 184.789 39.74C185.175 40.3133 185.369 40.9867 185.369 41.76V49H182.889V47.14L183.449 47.1C183.169 47.5667 182.835 47.96 182.449 48.28C182.062 48.5867 181.622 48.8267 181.129 49C180.635 49.16 180.089 49.24 179.489 49.24ZM187.79 49V38.12H190.25V40.64L189.97 40.22C190.17 39.4333 190.57 38.8467 191.17 38.46C191.77 38.0733 192.477 37.88 193.29 37.88C194.184 37.88 194.97 38.1133 195.65 38.58C196.33 39.0467 196.77 39.66 196.97 40.42L196.23 40.48C196.564 39.6133 197.064 38.9667 197.73 38.54C198.397 38.1 199.164 37.88 200.03 37.88C200.804 37.88 201.49 38.0533 202.09 38.4C202.704 38.7467 203.184 39.2333 203.53 39.86C203.877 40.4733 204.05 41.1867 204.05 42V49H201.43V42.62C201.43 42.14 201.344 41.7267 201.17 41.38C200.997 41.0333 200.757 40.7667 200.45 40.58C200.144 40.38 199.77 40.28 199.33 40.28C198.917 40.28 198.55 40.38 198.23 40.58C197.91 40.7667 197.664 41.0333 197.49 41.38C197.317 41.7267 197.23 42.14 197.23 42.62V49H194.61V42.62C194.61 42.14 194.524 41.7267 194.35 41.38C194.177 41.0333 193.93 40.7667 193.61 40.58C193.304 40.38 192.937 40.28 192.51 40.28C192.097 40.28 191.73 40.38 191.41 40.58C191.09 40.7667 190.844 41.0333 190.67 41.38C190.497 41.7267 190.41 42.14 190.41 42.62V49H187.79ZM206.267 49V38.12H208.887V49H206.267ZM206.267 36.9V34.1H208.887V36.9H206.267ZM211.306 49V38.12H213.766V40.26L213.566 39.88C213.819 39.2267 214.233 38.7333 214.806 38.4C215.393 38.0533 216.073 37.88 216.846 37.88C217.646 37.88 218.353 38.0533 218.966 38.4C219.593 38.7467 220.079 39.2333 220.426 39.86C220.773 40.4733 220.946 41.1867 220.946 42V49H218.326V42.62C218.326 42.14 218.233 41.7267 218.046 41.38C217.859 41.0333 217.599 40.7667 217.266 40.58C216.946 40.38 216.566 40.28 216.126 40.28C215.699 40.28 215.319 40.38 214.986 40.58C214.653 40.7667 214.393 41.0333 214.206 41.38C214.019 41.7267 213.926 42.14 213.926 42.62V49H211.306Z" fill="#181918"/>
<path d="M136.872 72.168C136.228 72.168 135.645 72.0233 135.122 71.734C134.609 71.4353 134.221 71.0153 133.96 70.474L134.128 70.32V72H133.078V61.402H134.128V66.176L133.96 65.882C134.259 65.406 134.655 65.028 135.15 64.748C135.654 64.468 136.228 64.328 136.872 64.328C137.581 64.328 138.211 64.5007 138.762 64.846C139.322 65.182 139.761 65.644 140.078 66.232C140.405 66.82 140.568 67.492 140.568 68.248C140.568 68.9947 140.405 69.6667 140.078 70.264C139.761 70.852 139.322 71.3187 138.762 71.664C138.211 72 137.581 72.168 136.872 72.168ZM136.816 71.118C137.32 71.118 137.768 70.992 138.16 70.74C138.561 70.488 138.874 70.1473 139.098 69.718C139.331 69.2793 139.448 68.7893 139.448 68.248C139.448 67.6973 139.331 67.2073 139.098 66.778C138.874 66.3487 138.561 66.008 138.16 65.756C137.768 65.504 137.32 65.378 136.816 65.378C136.312 65.378 135.855 65.504 135.444 65.756C135.043 66.008 134.721 66.3533 134.478 66.792C134.245 67.2213 134.128 67.7067 134.128 68.248C134.128 68.7893 134.245 69.2793 134.478 69.718C134.721 70.1473 135.043 70.488 135.444 70.74C135.855 70.992 136.312 71.118 136.816 71.118ZM145.832 72.168C145.132 72.168 144.497 72 143.928 71.664C143.368 71.3187 142.925 70.8473 142.598 70.25C142.271 69.6527 142.108 68.976 142.108 68.22C142.108 67.464 142.267 66.7967 142.584 66.218C142.901 65.63 143.331 65.168 143.872 64.832C144.423 64.496 145.039 64.328 145.72 64.328C146.261 64.328 146.742 64.4307 147.162 64.636C147.591 64.832 147.955 65.1027 148.254 65.448C148.553 65.784 148.781 66.1667 148.94 66.596C149.099 67.016 149.178 67.45 149.178 67.898C149.178 67.9913 149.173 68.0987 149.164 68.22C149.155 68.332 149.141 68.4487 149.122 68.57H142.78V67.59H148.52L148.016 68.01C148.1 67.4967 148.039 67.0393 147.834 66.638C147.638 66.2273 147.353 65.9053 146.98 65.672C146.607 65.4293 146.187 65.308 145.72 65.308C145.253 65.308 144.819 65.4293 144.418 65.672C144.026 65.9147 143.718 66.2553 143.494 66.694C143.27 67.1233 143.181 67.6367 143.228 68.234C143.181 68.8313 143.275 69.354 143.508 69.802C143.751 70.2407 144.077 70.5813 144.488 70.824C144.908 71.0667 145.356 71.188 145.832 71.188C146.383 71.188 146.845 71.0573 147.218 70.796C147.591 70.5347 147.895 70.208 148.128 69.816L149.024 70.292C148.875 70.628 148.646 70.9407 148.338 71.23C148.03 71.51 147.661 71.7387 147.232 71.916C146.812 72.084 146.345 72.168 145.832 72.168ZM151.029 72V64.496H152.079V65.952L151.841 65.896C152.028 65.4107 152.331 65.028 152.751 64.748C153.181 64.468 153.675 64.328 154.235 64.328C154.767 64.328 155.243 64.4493 155.663 64.692C156.093 64.9347 156.429 65.2707 156.671 65.7C156.923 66.12 157.049 66.596 157.049 67.128V72H155.999V67.534C155.999 67.0767 155.915 66.6893 155.747 66.372C155.589 66.0547 155.36 65.812 155.061 65.644C154.772 65.4667 154.436 65.378 154.053 65.378C153.671 65.378 153.33 65.4667 153.031 65.644C152.733 65.812 152.499 66.0593 152.331 66.386C152.163 66.7033 152.079 67.086 152.079 67.534V72H151.029ZM164.725 74.898C163.903 74.898 163.138 74.7487 162.429 74.45C161.729 74.1607 161.113 73.75 160.581 73.218C160.049 72.686 159.633 72.07 159.335 71.37C159.045 70.6607 158.901 69.9 158.901 69.088C158.901 68.276 159.05 67.52 159.349 66.82C159.647 66.12 160.058 65.5087 160.581 64.986C161.113 64.4633 161.733 64.0573 162.443 63.768C163.152 63.4693 163.913 63.32 164.725 63.32C165.565 63.32 166.339 63.4787 167.049 63.796C167.758 64.104 168.369 64.5287 168.883 65.07C169.405 65.602 169.807 66.2087 170.087 66.89C170.376 67.5713 170.521 68.2853 170.521 69.032C170.521 69.62 170.427 70.138 170.241 70.586C170.063 71.0247 169.802 71.37 169.457 71.622C169.111 71.874 168.696 72 168.211 72C167.921 72 167.646 71.9487 167.385 71.846C167.123 71.734 166.899 71.58 166.713 71.384C166.535 71.1787 166.414 70.936 166.349 70.656L166.573 70.838C166.423 71.09 166.237 71.3047 166.013 71.482C165.798 71.65 165.555 71.7807 165.285 71.874C165.014 71.958 164.72 72 164.403 72C163.861 72 163.371 71.8693 162.933 71.608C162.503 71.3467 162.163 70.992 161.911 70.544C161.659 70.096 161.533 69.5873 161.533 69.018C161.533 68.4487 161.659 67.94 161.911 67.492C162.163 67.044 162.503 66.6893 162.933 66.428C163.371 66.1573 163.861 66.022 164.403 66.022C164.86 66.022 165.275 66.1153 165.649 66.302C166.031 66.4887 166.335 66.75 166.559 67.086L166.461 67.254V66.162H167.371V70.026C167.371 70.3713 167.445 70.6233 167.595 70.782C167.753 70.9407 167.963 71.02 168.225 71.02C168.617 71.02 168.92 70.8567 169.135 70.53C169.359 70.2033 169.471 69.7133 169.471 69.06C169.471 68.388 169.354 67.7627 169.121 67.184C168.887 66.6053 168.561 66.1013 168.141 65.672C167.721 65.2427 167.221 64.9067 166.643 64.664C166.064 64.4213 165.425 64.3 164.725 64.3C164.043 64.3 163.409 64.4213 162.821 64.664C162.242 64.8973 161.738 65.2287 161.309 65.658C160.879 66.0873 160.543 66.5913 160.301 67.17C160.067 67.7487 159.951 68.3833 159.951 69.074C159.951 69.746 160.063 70.376 160.287 70.964C160.52 71.5427 160.847 72.0513 161.267 72.49C161.696 72.938 162.205 73.288 162.793 73.54C163.381 73.792 164.034 73.918 164.753 73.918C165.173 73.918 165.579 73.8713 165.971 73.778C166.363 73.694 166.717 73.5633 167.035 73.386L167.483 74.226C166.689 74.674 165.77 74.898 164.725 74.898ZM164.445 71.02C164.809 71.02 165.131 70.9313 165.411 70.754C165.691 70.5767 165.91 70.3387 166.069 70.04C166.237 69.732 166.321 69.3867 166.321 69.004C166.321 68.4253 166.143 67.954 165.789 67.59C165.434 67.2167 164.986 67.03 164.445 67.03C164.09 67.03 163.768 67.1187 163.479 67.296C163.199 67.464 162.979 67.6973 162.821 67.996C162.662 68.2947 162.583 68.6353 162.583 69.018C162.583 69.3913 162.662 69.732 162.821 70.04C162.989 70.3387 163.213 70.5767 163.493 70.754C163.773 70.9313 164.09 71.02 164.445 71.02ZM174.661 72.168C173.942 72.168 173.312 71.986 172.771 71.622C172.229 71.258 171.837 70.7633 171.595 70.138L172.477 69.718C172.691 70.1753 172.99 70.5393 173.373 70.81C173.765 71.0807 174.194 71.216 174.661 71.216C175.109 71.216 175.487 71.1087 175.795 70.894C176.103 70.67 176.257 70.3807 176.257 70.026C176.257 69.7647 176.182 69.5593 176.033 69.41C175.883 69.2513 175.711 69.13 175.515 69.046C175.319 68.962 175.146 68.9013 174.997 68.864L173.919 68.556C173.228 68.36 172.729 68.0847 172.421 67.73C172.113 67.3753 171.959 66.9647 171.959 66.498C171.959 66.0593 172.071 65.6767 172.295 65.35C172.519 65.0233 172.822 64.7713 173.205 64.594C173.587 64.4167 174.012 64.328 174.479 64.328C175.113 64.328 175.687 64.496 176.201 64.832C176.723 65.1587 177.092 65.616 177.307 66.204L176.411 66.624C176.224 66.204 175.953 65.8773 175.599 65.644C175.253 65.4013 174.866 65.28 174.437 65.28C174.017 65.28 173.681 65.3873 173.429 65.602C173.177 65.8167 173.051 66.0873 173.051 66.414C173.051 66.666 173.116 66.8667 173.247 67.016C173.377 67.1653 173.527 67.2773 173.695 67.352C173.872 67.4267 174.026 67.4827 174.157 67.52L175.403 67.884C176.009 68.0613 176.481 68.3367 176.817 68.71C177.162 69.0833 177.335 69.522 177.335 70.026C177.335 70.4367 177.218 70.8053 176.985 71.132C176.761 71.4587 176.448 71.7153 176.047 71.902C175.645 72.0793 175.183 72.168 174.661 72.168ZM179.18 72V61.402H180.23V65.952L179.992 65.896C180.178 65.4107 180.482 65.028 180.902 64.748C181.331 64.468 181.826 64.328 182.386 64.328C182.918 64.328 183.394 64.4493 183.814 64.692C184.243 64.9347 184.579 65.2707 184.822 65.7C185.074 66.12 185.2 66.596 185.2 67.128V72H184.15V67.534C184.15 67.0767 184.066 66.6893 183.898 66.372C183.73 66.0547 183.496 65.812 183.198 65.644C182.908 65.4667 182.577 65.378 182.204 65.378C181.83 65.378 181.494 65.4667 181.196 65.644C180.897 65.812 180.659 66.0593 180.482 66.386C180.314 66.7033 180.23 67.086 180.23 67.534V72H179.18ZM190.621 72.168C189.921 72.168 189.286 72 188.717 71.664C188.157 71.3187 187.714 70.8473 187.387 70.25C187.06 69.6527 186.897 68.976 186.897 68.22C186.897 67.464 187.056 66.7967 187.373 66.218C187.69 65.63 188.12 65.168 188.661 64.832C189.212 64.496 189.828 64.328 190.509 64.328C191.05 64.328 191.531 64.4307 191.951 64.636C192.38 64.832 192.744 65.1027 193.043 65.448C193.342 65.784 193.57 66.1667 193.729 66.596C193.888 67.016 193.967 67.45 193.967 67.898C193.967 67.9913 193.962 68.0987 193.953 68.22C193.944 68.332 193.93 68.4487 193.911 68.57H187.569V67.59H193.309L192.805 68.01C192.889 67.4967 192.828 67.0393 192.623 66.638C192.427 66.2273 192.142 65.9053 191.769 65.672C191.396 65.4293 190.976 65.308 190.509 65.308C190.042 65.308 189.608 65.4293 189.207 65.672C188.815 65.9147 188.507 66.2553 188.283 66.694C188.059 67.1233 187.97 67.6367 188.017 68.234C187.97 68.8313 188.064 69.354 188.297 69.802C188.54 70.2407 188.866 70.5813 189.277 70.824C189.697 71.0667 190.145 71.188 190.621 71.188C191.172 71.188 191.634 71.0573 192.007 70.796C192.38 70.5347 192.684 70.208 192.917 69.816L193.813 70.292C193.664 70.628 193.435 70.9407 193.127 71.23C192.819 71.51 192.45 71.7387 192.021 71.916C191.601 72.084 191.134 72.168 190.621 72.168ZM195.818 72V61.402H196.868V68.822L196.42 68.752L200.634 64.496H201.992L199.052 67.506L202.258 72H200.998L197.988 67.842L198.66 67.898L196.518 70.11L196.868 69.242V72H195.818ZM206.767 72.168C206.067 72.168 205.433 72 204.863 71.664C204.303 71.3187 203.86 70.8473 203.533 70.25C203.207 69.6527 203.043 68.976 203.043 68.22C203.043 67.464 203.202 66.7967 203.519 66.218C203.837 65.63 204.266 65.168 204.807 64.832C205.358 64.496 205.974 64.328 206.655 64.328C207.197 64.328 207.677 64.4307 208.097 64.636C208.527 64.832 208.891 65.1027 209.189 65.448C209.488 65.784 209.717 66.1667 209.875 66.596C210.034 67.016 210.113 67.45 210.113 67.898C210.113 67.9913 210.109 68.0987 210.099 68.22C210.09 68.332 210.076 68.4487 210.057 68.57H203.715V67.59H209.455L208.951 68.01C209.035 67.4967 208.975 67.0393 208.769 66.638C208.573 66.2273 208.289 65.9053 207.915 65.672C207.542 65.4293 207.122 65.308 206.655 65.308C206.189 65.308 205.755 65.4293 205.353 65.672C204.961 65.9147 204.653 66.2553 204.429 66.694C204.205 67.1233 204.117 67.6367 204.163 68.234C204.117 68.8313 204.21 69.354 204.443 69.802C204.686 70.2407 205.013 70.5813 205.423 70.824C205.843 71.0667 206.291 71.188 206.767 71.188C207.318 71.188 207.78 71.0573 208.153 70.796C208.527 70.5347 208.83 70.208 209.063 69.816L209.959 70.292C209.81 70.628 209.581 70.9407 209.273 71.23C208.965 71.51 208.597 71.7387 208.167 71.916C207.747 72.084 207.281 72.168 206.767 72.168ZM211.965 72V61.402H213.015V72H211.965ZM215.528 72V70.46H216.648V72H215.528ZM221.34 72.168C220.864 72.168 220.439 72.0793 220.066 71.902C219.692 71.7153 219.398 71.4633 219.184 71.146C218.969 70.8287 218.862 70.4647 218.862 70.054C218.862 69.662 218.946 69.3073 219.114 68.99C219.282 68.6633 219.543 68.388 219.898 68.164C220.252 67.94 220.705 67.7813 221.256 67.688L224.196 67.198V68.15L221.508 68.598C220.966 68.6913 220.574 68.864 220.332 69.116C220.098 69.368 219.982 69.6667 219.982 70.012C219.982 70.348 220.112 70.6327 220.374 70.866C220.644 71.0993 220.99 71.216 221.41 71.216C221.923 71.216 222.371 71.1087 222.754 70.894C223.136 70.67 223.435 70.3713 223.65 69.998C223.864 69.6247 223.972 69.2093 223.972 68.752V66.848C223.972 66.4 223.808 66.036 223.482 65.756C223.155 65.476 222.73 65.336 222.208 65.336C221.75 65.336 221.349 65.4527 221.004 65.686C220.658 65.91 220.402 66.204 220.234 66.568L219.282 66.05C219.422 65.7327 219.641 65.4433 219.94 65.182C220.248 64.9207 220.598 64.7153 220.99 64.566C221.382 64.4073 221.788 64.328 222.208 64.328C222.758 64.328 223.244 64.4353 223.664 64.65C224.093 64.8647 224.424 65.1633 224.658 65.546C224.9 65.9193 225.022 66.3533 225.022 66.848V72H223.972V70.502L224.126 70.656C223.995 70.936 223.79 71.1927 223.51 71.426C223.239 71.65 222.917 71.832 222.544 71.972C222.18 72.1027 221.778 72.168 221.34 72.168ZM227.952 72V65.546H226.454V64.496H227.952V63.824C227.952 63.3013 228.068 62.8627 228.302 62.508C228.535 62.144 228.843 61.8687 229.226 61.682C229.608 61.4953 230.019 61.402 230.458 61.402C230.551 61.402 230.658 61.4113 230.78 61.43C230.901 61.4393 230.999 61.4533 231.074 61.472V62.424C231.008 62.4053 230.92 62.396 230.808 62.396C230.696 62.3867 230.616 62.382 230.57 62.382C230.122 62.382 229.748 62.4893 229.45 62.704C229.151 62.9187 229.002 63.292 229.002 63.824V64.496H230.836V65.546H229.002V72H227.952ZM232.541 72V64.496H233.591V65.728L233.451 65.546C233.628 65.1913 233.894 64.9113 234.249 64.706C234.613 64.5007 235.052 64.398 235.565 64.398H236.041V65.448H235.383C234.842 65.448 234.408 65.616 234.081 65.952C233.754 66.288 233.591 66.764 233.591 67.38V72H232.541ZM237.271 72V64.496H238.321V72H237.271ZM237.271 63.11V61.57H238.321V63.11H237.271ZM243.901 72.168C243.163 72.168 242.515 71.9953 241.955 71.65C241.395 71.3047 240.956 70.838 240.639 70.25C240.321 69.6527 240.163 68.9807 240.163 68.234C240.163 67.4873 240.321 66.82 240.639 66.232C240.956 65.644 241.395 65.182 241.955 64.846C242.515 64.5007 243.163 64.328 243.901 64.328C244.367 64.328 244.806 64.412 245.217 64.58C245.627 64.748 245.991 64.9767 246.309 65.266C246.626 65.546 246.864 65.8727 247.023 66.246L246.071 66.736C245.884 66.3347 245.599 66.008 245.217 65.756C244.834 65.504 244.395 65.378 243.901 65.378C243.406 65.378 242.958 65.504 242.557 65.756C242.165 65.9987 241.852 66.3393 241.619 66.778C241.395 67.2073 241.283 67.6973 241.283 68.248C241.283 68.7893 241.395 69.2793 241.619 69.718C241.852 70.1473 242.165 70.488 242.557 70.74C242.958 70.992 243.406 71.118 243.901 71.118C244.395 71.118 244.829 70.992 245.203 70.74C245.585 70.488 245.875 70.152 246.071 69.732L247.023 70.25C246.864 70.614 246.626 70.9407 246.309 71.23C245.991 71.5193 245.627 71.748 245.217 71.916C244.806 72.084 244.367 72.168 243.901 72.168ZM250.898 72.168C250.422 72.168 249.998 72.0793 249.624 71.902C249.251 71.7153 248.957 71.4633 248.742 71.146C248.528 70.8287 248.42 70.4647 248.42 70.054C248.42 69.662 248.504 69.3073 248.672 68.99C248.84 68.6633 249.102 68.388 249.456 68.164C249.811 67.94 250.264 67.7813 250.814 67.688L253.754 67.198V68.15L251.066 68.598C250.525 68.6913 250.133 68.864 249.89 69.116C249.657 69.368 249.54 69.6667 249.54 70.012C249.54 70.348 249.671 70.6327 249.932 70.866C250.203 71.0993 250.548 71.216 250.968 71.216C251.482 71.216 251.93 71.1087 252.312 70.894C252.695 70.67 252.994 70.3713 253.208 69.998C253.423 69.6247 253.53 69.2093 253.53 68.752V66.848C253.53 66.4 253.367 66.036 253.04 65.756C252.714 65.476 252.289 65.336 251.766 65.336C251.309 65.336 250.908 65.4527 250.562 65.686C250.217 65.91 249.96 66.204 249.792 66.568L248.84 66.05C248.98 65.7327 249.2 65.4433 249.498 65.182C249.806 64.9207 250.156 64.7153 250.548 64.566C250.94 64.4073 251.346 64.328 251.766 64.328C252.317 64.328 252.802 64.4353 253.222 64.65C253.652 64.8647 253.983 65.1633 254.216 65.546C254.459 65.9193 254.58 66.3533 254.58 66.848V72H253.53V70.502L253.684 70.656C253.554 70.936 253.348 71.1927 253.068 71.426C252.798 71.65 252.476 71.832 252.102 71.972C251.738 72.1027 251.337 72.168 250.898 72.168Z" fill="#181918"/>
<path d="M137.992 93.168C137.255 93.168 136.578 93.0373 135.962 92.776C135.346 92.5053 134.809 92.132 134.352 91.656C133.904 91.1707 133.554 90.6013 133.302 89.948C133.05 89.2947 132.924 88.576 132.924 87.792C132.924 87.008 133.05 86.2893 133.302 85.636C133.554 84.9827 133.904 84.4133 134.352 83.928C134.809 83.4427 135.346 83.0693 135.962 82.808C136.578 82.5373 137.255 82.402 137.992 82.402C138.701 82.402 139.336 82.528 139.896 82.78C140.465 83.032 140.941 83.3587 141.324 83.76C141.716 84.152 141.996 84.5673 142.164 85.006L141.114 85.468C140.853 84.8613 140.451 84.376 139.91 84.012C139.378 83.6387 138.739 83.452 137.992 83.452C137.227 83.452 136.545 83.634 135.948 83.998C135.351 84.362 134.884 84.8707 134.548 85.524C134.212 86.168 134.044 86.924 134.044 87.792C134.044 88.6507 134.212 89.4067 134.548 90.06C134.884 90.7133 135.351 91.222 135.948 91.586C136.545 91.9407 137.227 92.118 137.992 92.118C138.739 92.118 139.378 91.936 139.91 91.572C140.451 91.208 140.853 90.7227 141.114 90.116L142.164 90.578C141.996 91.0073 141.716 91.4227 141.324 91.824C140.941 92.216 140.465 92.538 139.896 92.79C139.336 93.042 138.701 93.168 137.992 93.168ZM147.393 93.168C146.683 93.168 146.039 93 145.461 92.664C144.882 92.3187 144.42 91.852 144.075 91.264C143.739 90.6667 143.571 89.99 143.571 89.234C143.571 88.4873 143.739 87.82 144.075 87.232C144.411 86.644 144.863 86.182 145.433 85.846C146.011 85.5007 146.665 85.328 147.393 85.328C148.121 85.328 148.769 85.496 149.339 85.832C149.917 86.168 150.37 86.63 150.697 87.218C151.033 87.806 151.201 88.478 151.201 89.234C151.201 89.9993 151.028 90.6807 150.683 91.278C150.337 91.866 149.875 92.328 149.297 92.664C148.727 93 148.093 93.168 147.393 93.168ZM147.393 92.118C147.897 92.118 148.349 91.992 148.751 91.74C149.161 91.488 149.483 91.1427 149.717 90.704C149.959 90.2653 150.081 89.7753 150.081 89.234C150.081 88.6927 149.959 88.2073 149.717 87.778C149.483 87.3487 149.161 87.008 148.751 86.756C148.349 86.504 147.897 86.378 147.393 86.378C146.889 86.378 146.431 86.504 146.021 86.756C145.619 87.008 145.297 87.3487 145.055 87.778C144.812 88.2073 144.691 88.6927 144.691 89.234C144.691 89.7753 144.812 90.2653 145.055 90.704C145.297 91.1427 145.619 91.488 146.021 91.74C146.431 91.992 146.889 92.118 147.393 92.118ZM153.417 93V91.46H154.537V93H153.417ZM160.207 93V86.546H158.709V85.496H160.207V84.824C160.207 84.3013 160.324 83.8627 160.557 83.508C160.791 83.144 161.099 82.8687 161.481 82.682C161.864 82.4953 162.275 82.402 162.713 82.402C162.807 82.402 162.914 82.4113 163.035 82.43C163.157 82.4393 163.255 82.4533 163.329 82.472V83.424C163.264 83.4053 163.175 83.396 163.063 83.396C162.951 83.3867 162.872 83.382 162.825 83.382C162.377 83.382 162.004 83.4893 161.705 83.704C161.407 83.9187 161.257 84.292 161.257 84.824V85.496H163.091V86.546H161.257V93H160.207ZM168.024 93.168C167.314 93.168 166.67 93 166.092 92.664C165.513 92.3187 165.051 91.852 164.706 91.264C164.37 90.6667 164.202 89.99 164.202 89.234C164.202 88.4873 164.37 87.82 164.706 87.232C165.042 86.644 165.494 86.182 166.064 85.846C166.642 85.5007 167.296 85.328 168.024 85.328C168.752 85.328 169.4 85.496 169.97 85.832C170.548 86.168 171.001 86.63 171.328 87.218C171.664 87.806 171.832 88.478 171.832 89.234C171.832 89.9993 171.659 90.6807 171.314 91.278C170.968 91.866 170.506 92.328 169.928 92.664C169.358 93 168.724 93.168 168.024 93.168ZM168.024 92.118C168.528 92.118 168.98 91.992 169.382 91.74C169.792 91.488 170.114 91.1427 170.348 90.704C170.59 90.2653 170.712 89.7753 170.712 89.234C170.712 88.6927 170.59 88.2073 170.348 87.778C170.114 87.3487 169.792 87.008 169.382 86.756C168.98 86.504 168.528 86.378 168.024 86.378C167.52 86.378 167.062 86.504 166.652 86.756C166.25 87.008 165.928 87.3487 165.686 87.778C165.443 88.2073 165.322 88.6927 165.322 89.234C165.322 89.7753 165.443 90.2653 165.686 90.704C165.928 91.1427 166.25 91.488 166.652 91.74C167.062 91.992 167.52 92.118 168.024 92.118ZM176.343 93.168C175.821 93.168 175.345 93.0467 174.915 92.804C174.486 92.552 174.145 92.2067 173.893 91.768C173.651 91.32 173.529 90.8067 173.529 90.228V85.496H174.579V90.102C174.579 90.5033 174.659 90.858 174.817 91.166C174.985 91.4647 175.214 91.698 175.503 91.866C175.802 92.034 176.143 92.118 176.525 92.118C176.908 92.118 177.249 92.034 177.547 91.866C177.846 91.6887 178.079 91.4413 178.247 91.124C178.415 90.7973 178.499 90.41 178.499 89.962V85.496H179.549V93H178.499V91.544L178.737 91.6C178.56 92.0853 178.257 92.468 177.827 92.748C177.398 93.028 176.903 93.168 176.343 93.168ZM181.709 93V85.496H182.759V86.952L182.521 86.896C182.708 86.4107 183.011 86.028 183.431 85.748C183.86 85.468 184.355 85.328 184.915 85.328C185.447 85.328 185.923 85.4493 186.343 85.692C186.772 85.9347 187.108 86.2707 187.351 86.7C187.603 87.12 187.729 87.596 187.729 88.128V93H186.679V88.534C186.679 88.0767 186.595 87.6893 186.427 87.372C186.268 87.0547 186.04 86.812 185.741 86.644C185.452 86.4667 185.116 86.378 184.733 86.378C184.35 86.378 184.01 86.4667 183.711 86.644C183.412 86.812 183.179 87.0593 183.011 87.386C182.843 87.7033 182.759 88.086 182.759 88.534V93H181.709ZM193.122 93.168C192.422 93.168 191.792 93 191.232 92.664C190.672 92.3187 190.229 91.852 189.902 91.264C189.585 90.6667 189.426 89.9947 189.426 89.248C189.426 88.492 189.585 87.82 189.902 87.232C190.229 86.644 190.668 86.182 191.218 85.846C191.778 85.5007 192.413 85.328 193.122 85.328C193.766 85.328 194.34 85.468 194.844 85.748C195.348 86.028 195.745 86.406 196.034 86.882L195.866 87.176V82.402H196.916V93H195.866V91.32L196.034 91.474C195.773 92.0153 195.381 92.4353 194.858 92.734C194.345 93.0233 193.766 93.168 193.122 93.168ZM193.178 92.118C193.682 92.118 194.135 91.992 194.536 91.74C194.947 91.488 195.269 91.1473 195.502 90.718C195.745 90.2793 195.866 89.7893 195.866 89.248C195.866 88.7067 195.745 88.2213 195.502 87.792C195.269 87.3533 194.947 87.008 194.536 86.756C194.135 86.504 193.682 86.378 193.178 86.378C192.684 86.378 192.236 86.504 191.834 86.756C191.433 87.008 191.116 87.3487 190.882 87.778C190.658 88.2073 190.546 88.6973 190.546 89.248C190.546 89.7893 190.658 90.2793 190.882 90.718C191.116 91.1473 191.428 91.488 191.82 91.74C192.222 91.992 192.674 92.118 193.178 92.118ZM202.488 93.168C201.788 93.168 201.153 93 200.584 92.664C200.024 92.3187 199.581 91.8473 199.254 91.25C198.927 90.6527 198.764 89.976 198.764 89.22C198.764 88.464 198.923 87.7967 199.24 87.218C199.557 86.63 199.987 86.168 200.528 85.832C201.079 85.496 201.695 85.328 202.376 85.328C202.917 85.328 203.398 85.4307 203.818 85.636C204.247 85.832 204.611 86.1027 204.91 86.448C205.209 86.784 205.437 87.1667 205.596 87.596C205.755 88.016 205.834 88.45 205.834 88.898C205.834 88.9913 205.829 89.0987 205.82 89.22C205.811 89.332 205.797 89.4487 205.778 89.57H199.436V88.59H205.176L204.672 89.01C204.756 88.4967 204.695 88.0393 204.49 87.638C204.294 87.2273 204.009 86.9053 203.636 86.672C203.263 86.4293 202.843 86.308 202.376 86.308C201.909 86.308 201.475 86.4293 201.074 86.672C200.682 86.9147 200.374 87.2553 200.15 87.694C199.926 88.1233 199.837 88.6367 199.884 89.234C199.837 89.8313 199.931 90.354 200.164 90.802C200.407 91.2407 200.733 91.5813 201.144 91.824C201.564 92.0667 202.012 92.188 202.488 92.188C203.039 92.188 203.501 92.0573 203.874 91.796C204.247 91.5347 204.551 91.208 204.784 90.816L205.68 91.292C205.531 91.628 205.302 91.9407 204.994 92.23C204.686 92.51 204.317 92.7387 203.888 92.916C203.468 93.084 203.001 93.168 202.488 93.168ZM207.685 93V85.496H208.735V86.728L208.595 86.546C208.773 86.1913 209.039 85.9113 209.393 85.706C209.757 85.5007 210.196 85.398 210.709 85.398H211.185V86.448H210.527C209.986 86.448 209.552 86.616 209.225 86.952C208.899 87.288 208.735 87.764 208.735 88.38V93H207.685Z" fill="#181918"/>
<circle cx="219.5" cy="87" r="2.5" fill="#181918"/>
<path d="M232.992 93.168C232.255 93.168 231.578 93.0373 230.962 92.776C230.346 92.5053 229.809 92.132 229.352 91.656C228.904 91.1707 228.554 90.6013 228.302 89.948C228.05 89.2947 227.924 88.576 227.924 87.792C227.924 87.008 228.05 86.2893 228.302 85.636C228.554 84.9827 228.904 84.4133 229.352 83.928C229.809 83.4427 230.346 83.0693 230.962 82.808C231.578 82.5373 232.255 82.402 232.992 82.402C233.701 82.402 234.336 82.528 234.896 82.78C235.465 83.032 235.941 83.3587 236.324 83.76C236.716 84.152 236.996 84.5673 237.164 85.006L236.156 85.496C235.895 84.8613 235.493 84.362 234.952 83.998C234.411 83.634 233.757 83.452 232.992 83.452C232.227 83.452 231.545 83.634 230.948 83.998C230.351 84.362 229.884 84.8707 229.548 85.524C229.212 86.168 229.044 86.924 229.044 87.792C229.044 88.6507 229.212 89.4067 229.548 90.06C229.884 90.7133 230.351 91.222 230.948 91.586C231.545 91.9407 232.227 92.118 232.992 92.118C233.673 92.118 234.285 91.9687 234.826 91.67C235.377 91.3713 235.811 90.9653 236.128 90.452C236.445 89.9293 236.604 89.332 236.604 88.66V88.086L237.108 88.59H232.992V87.61H237.724V88.478C237.724 89.1593 237.603 89.7893 237.36 90.368C237.117 90.9373 236.781 91.432 236.352 91.852C235.923 92.272 235.419 92.5987 234.84 92.832C234.271 93.056 233.655 93.168 232.992 93.168ZM239.576 93V82.402H240.626V93H239.576ZM246.289 93.168C245.58 93.168 244.936 93 244.357 92.664C243.779 92.3187 243.317 91.852 242.971 91.264C242.635 90.6667 242.467 89.99 242.467 89.234C242.467 88.4873 242.635 87.82 242.971 87.232C243.307 86.644 243.76 86.182 244.329 85.846C244.908 85.5007 245.561 85.328 246.289 85.328C247.017 85.328 247.666 85.496 248.235 85.832C248.814 86.168 249.267 86.63 249.593 87.218C249.929 87.806 250.097 88.478 250.097 89.234C250.097 89.9993 249.925 90.6807 249.579 91.278C249.234 91.866 248.772 92.328 248.193 92.664C247.624 93 246.989 93.168 246.289 93.168ZM246.289 92.118C246.793 92.118 247.246 91.992 247.647 91.74C248.058 91.488 248.38 91.1427 248.613 90.704C248.856 90.2653 248.977 89.7753 248.977 89.234C248.977 88.6927 248.856 88.2073 248.613 87.778C248.38 87.3487 248.058 87.008 247.647 86.756C247.246 86.504 246.793 86.378 246.289 86.378C245.785 86.378 245.328 86.504 244.917 86.756C244.516 87.008 244.194 87.3487 243.951 87.778C243.709 88.2073 243.587 88.6927 243.587 89.234C243.587 89.7753 243.709 90.2653 243.951 90.704C244.194 91.1427 244.516 91.488 244.917 91.74C245.328 91.992 245.785 92.118 246.289 92.118ZM255.743 93.168C255.099 93.168 254.516 93.0233 253.993 92.734C253.48 92.4353 253.092 92.0153 252.831 91.474L252.999 91.32V93H251.949V82.402H252.999V87.176L252.831 86.882C253.13 86.406 253.526 86.028 254.021 85.748C254.525 85.468 255.099 85.328 255.743 85.328C256.452 85.328 257.082 85.5007 257.633 85.846C258.193 86.182 258.632 86.644 258.949 87.232C259.276 87.82 259.439 88.492 259.439 89.248C259.439 89.9947 259.276 90.6667 258.949 91.264C258.632 91.852 258.193 92.3187 257.633 92.664C257.082 93 256.452 93.168 255.743 93.168ZM255.687 92.118C256.191 92.118 256.639 91.992 257.031 91.74C257.432 91.488 257.745 91.1473 257.969 90.718C258.202 90.2793 258.319 89.7893 258.319 89.248C258.319 88.6973 258.202 88.2073 257.969 87.778C257.745 87.3487 257.432 87.008 257.031 86.756C256.639 86.504 256.191 86.378 255.687 86.378C255.183 86.378 254.726 86.504 254.315 86.756C253.914 87.008 253.592 87.3533 253.349 87.792C253.116 88.2213 252.999 88.7067 252.999 89.248C252.999 89.7893 253.116 90.2793 253.349 90.718C253.592 91.1473 253.914 91.488 254.315 91.74C254.726 91.992 255.183 92.118 255.687 92.118ZM263.457 93.168C262.981 93.168 262.556 93.0793 262.183 92.902C261.81 92.7153 261.516 92.4633 261.301 92.146C261.086 91.8287 260.979 91.4647 260.979 91.054C260.979 90.662 261.063 90.3073 261.231 89.99C261.399 89.6633 261.66 89.388 262.015 89.164C262.37 88.94 262.822 88.7813 263.373 88.688L266.313 88.198V89.15L263.625 89.598C263.084 89.6913 262.692 89.864 262.449 90.116C262.216 90.368 262.099 90.6667 262.099 91.012C262.099 91.348 262.23 91.6327 262.491 91.866C262.762 92.0993 263.107 92.216 263.527 92.216C264.04 92.216 264.488 92.1087 264.871 91.894C265.254 91.67 265.552 91.3713 265.767 90.998C265.982 90.6247 266.089 90.2093 266.089 89.752V87.848C266.089 87.4 265.926 87.036 265.599 86.756C265.272 86.476 264.848 86.336 264.325 86.336C263.868 86.336 263.466 86.4527 263.121 86.686C262.776 86.91 262.519 87.204 262.351 87.568L261.399 87.05C261.539 86.7327 261.758 86.4433 262.057 86.182C262.365 85.9207 262.715 85.7153 263.107 85.566C263.499 85.4073 263.905 85.328 264.325 85.328C264.876 85.328 265.361 85.4353 265.781 85.65C266.21 85.8647 266.542 86.1633 266.775 86.546C267.018 86.9193 267.139 87.3533 267.139 87.848V93H266.089V91.502L266.243 91.656C266.112 91.936 265.907 92.1927 265.627 92.426C265.356 92.65 265.034 92.832 264.661 92.972C264.297 93.1027 263.896 93.168 263.457 93.168ZM269.299 93V82.402H270.349V93H269.299ZM273.953 93L277.761 82.57H278.965L282.773 93H281.597L280.701 90.452H276.039L275.129 93H273.953ZM276.403 89.402H280.309L278.195 83.41H278.531L276.403 89.402ZM287.124 93.168C286.424 93.168 285.794 93 285.234 92.664C284.674 92.3187 284.231 91.852 283.904 91.264C283.587 90.6667 283.428 89.9947 283.428 89.248C283.428 88.492 283.587 87.82 283.904 87.232C284.231 86.644 284.67 86.182 285.22 85.846C285.78 85.5007 286.415 85.328 287.124 85.328C287.768 85.328 288.342 85.468 288.846 85.748C289.35 86.028 289.747 86.406 290.036 86.882L289.868 87.176V82.402H290.918V93H289.868V91.32L290.036 91.474C289.775 92.0153 289.383 92.4353 288.86 92.734C288.347 93.0233 287.768 93.168 287.124 93.168ZM287.18 92.118C287.684 92.118 288.137 91.992 288.538 91.74C288.949 91.488 289.271 91.1473 289.504 90.718C289.747 90.2793 289.868 89.7893 289.868 89.248C289.868 88.7067 289.747 88.2213 289.504 87.792C289.271 87.3533 288.949 87.008 288.538 86.756C288.137 86.504 287.684 86.378 287.18 86.378C286.686 86.378 286.238 86.504 285.836 86.756C285.435 87.008 285.118 87.3487 284.884 87.778C284.66 88.2073 284.548 88.6973 284.548 89.248C284.548 89.7893 284.66 90.2793 284.884 90.718C285.118 91.1473 285.43 91.488 285.822 91.74C286.224 91.992 286.676 92.118 287.18 92.118ZM293.074 93V85.496H294.124V86.924L293.956 86.714C294.161 86.2753 294.465 85.9347 294.866 85.692C295.277 85.4493 295.725 85.328 296.21 85.328C296.789 85.328 297.311 85.4913 297.778 85.818C298.245 86.1447 298.576 86.5693 298.772 87.092L298.478 87.106C298.665 86.5273 298.987 86.0887 299.444 85.79C299.911 85.482 300.424 85.328 300.984 85.328C301.488 85.328 301.95 85.4493 302.37 85.692C302.799 85.9347 303.14 86.2707 303.392 86.7C303.653 87.12 303.784 87.596 303.784 88.128V93H302.734V88.534C302.734 88.0767 302.65 87.6893 302.482 87.372C302.323 87.0547 302.104 86.812 301.824 86.644C301.544 86.4667 301.222 86.378 300.858 86.378C300.503 86.378 300.181 86.4667 299.892 86.644C299.603 86.812 299.374 87.0593 299.206 87.386C299.038 87.7033 298.954 88.086 298.954 88.534V93H297.904V88.534C297.904 88.0767 297.82 87.6893 297.652 87.372C297.493 87.0547 297.274 86.812 296.994 86.644C296.714 86.4667 296.392 86.378 296.028 86.378C295.664 86.378 295.337 86.4667 295.048 86.644C294.768 86.812 294.544 87.0593 294.376 87.386C294.208 87.7033 294.124 88.086 294.124 88.534V93H293.074ZM305.789 93V85.496H306.839V93H305.789ZM305.789 84.11V82.57H306.839V84.11H305.789ZM308.988 93V85.496H310.038V86.952L309.8 86.896C309.987 86.4107 310.29 86.028 310.71 85.748C311.139 85.468 311.634 85.328 312.194 85.328C312.726 85.328 313.202 85.4493 313.622 85.692C314.051 85.9347 314.387 86.2707 314.63 86.7C314.882 87.12 315.008 87.596 315.008 88.128V93H313.958V88.534C313.958 88.0767 313.874 87.6893 313.706 87.372C313.547 87.0547 313.319 86.812 313.02 86.644C312.731 86.4667 312.395 86.378 312.012 86.378C311.629 86.378 311.289 86.4667 310.99 86.644C310.691 86.812 310.458 87.0593 310.29 87.386C310.122 87.7033 310.038 88.086 310.038 88.534V93H308.988Z" fill="#181918"/>
</g>
<g opacity="0.1">
<path d="M41 16C41 7.16344 48.1634 0 57 0H315C323.837 0 331 7.16344 331 16V111C331 119.837 323.837 127 315 127H57C48.1635 127 41 119.837 41 111V16Z" fill="url(#paint1_linear_683_56525)"/>
<rect x="65" y="36" width="67" height="67" rx="33.5" fill="#1B1C1E"/>
<path d="M92.8552 78V62.0216H99.5683C100.526 62.0216 101.348 62.1932 102.035 62.5363C102.735 62.8795 103.272 63.3657 103.643 63.9948C104.029 64.6096 104.222 65.346 104.222 66.2039C104.222 66.9903 104.015 67.7052 103.6 68.3486C103.2 68.9777 102.607 69.471 101.82 69.8285L101.799 69.0349C102.485 69.2923 103.05 69.6355 103.493 70.0644C103.951 70.4791 104.294 70.9652 104.523 71.5229C104.751 72.0662 104.866 72.6453 104.866 73.2601C104.866 74.7328 104.394 75.891 103.45 76.7346C102.507 77.5782 101.22 78 99.5897 78H92.8552ZM94.9571 76.0697H99.6755C100.605 76.0697 101.348 75.8195 101.906 75.3191C102.464 74.8186 102.743 74.1394 102.743 73.2815C102.743 72.4236 102.464 71.7445 101.906 71.244C101.348 70.7293 100.605 70.4719 99.6755 70.4719H94.9571V76.0697ZM94.9571 68.5845H99.5254C100.297 68.5845 100.919 68.3629 101.391 67.9197C101.863 67.4621 102.099 66.883 102.099 66.1824C102.099 65.4532 101.863 64.8956 101.391 64.5095C100.919 64.1235 100.297 63.9304 99.5254 63.9304H94.9571V68.5845Z" fill="#FDFDFE"/>
<path d="M157.44 56V41.1H163.72C164.707 41.1 165.547 41.2733 166.24 41.62C166.947 41.9533 167.487 42.4333 167.86 43.06C168.247 43.6733 168.44 44.42 168.44 45.3C168.44 45.98 168.253 46.62 167.88 47.22C167.52 47.8067 166.94 48.2933 166.14 48.68V47.42C166.873 47.7 167.453 48.0467 167.88 48.46C168.307 48.8733 168.607 49.3333 168.78 49.84C168.953 50.3467 169.04 50.88 169.04 51.44C169.04 52.8667 168.567 53.9867 167.62 54.8C166.687 55.6 165.387 56 163.72 56H157.44ZM160.16 53.6H164C164.707 53.6 165.267 53.4067 165.68 53.02C166.107 52.62 166.32 52.0933 166.32 51.44C166.32 50.7867 166.107 50.26 165.68 49.86C165.267 49.46 164.707 49.26 164 49.26H160.16V53.6ZM160.16 46.88H163.86C164.42 46.88 164.867 46.72 165.2 46.4C165.533 46.0667 165.7 45.64 165.7 45.12C165.7 44.6 165.533 44.1867 165.2 43.88C164.867 43.5733 164.42 43.42 163.86 43.42H160.16V46.88ZM176.208 56.24C175.088 56.24 174.108 55.9867 173.268 55.48C172.428 54.9733 171.775 54.2867 171.308 53.42C170.841 52.5533 170.608 51.5933 170.608 50.54C170.608 49.4467 170.841 48.48 171.308 47.64C171.788 46.7867 172.435 46.1133 173.248 45.62C174.075 45.1267 174.995 44.88 176.008 44.88C176.861 44.88 177.608 45.02 178.248 45.3C178.901 45.58 179.455 45.9667 179.908 46.46C180.361 46.9533 180.708 47.52 180.948 48.16C181.188 48.7867 181.308 49.4667 181.308 50.2C181.308 50.3867 181.295 50.58 181.268 50.78C181.255 50.98 181.221 51.1533 181.168 51.3H172.768V49.3H179.688L178.448 50.24C178.568 49.6267 178.535 49.08 178.348 48.6C178.175 48.12 177.881 47.74 177.468 47.46C177.068 47.18 176.581 47.04 176.008 47.04C175.461 47.04 174.975 47.18 174.548 47.46C174.121 47.7267 173.795 48.1267 173.568 48.66C173.355 49.18 173.275 49.8133 173.328 50.56C173.275 51.2267 173.361 51.82 173.588 52.34C173.828 52.8467 174.175 53.24 174.628 53.52C175.095 53.8 175.628 53.94 176.228 53.94C176.828 53.94 177.335 53.8133 177.748 53.56C178.175 53.3067 178.508 52.9667 178.748 52.54L180.868 53.58C180.655 54.1 180.321 54.56 179.868 54.96C179.415 55.36 178.875 55.6733 178.248 55.9C177.635 56.1267 176.955 56.24 176.208 56.24ZM183.294 56V45.12H185.754V47.26L185.554 46.88C185.808 46.2267 186.221 45.7333 186.794 45.4C187.381 45.0533 188.061 44.88 188.834 44.88C189.634 44.88 190.341 45.0533 190.954 45.4C191.581 45.7467 192.068 46.2333 192.414 46.86C192.761 47.4733 192.934 48.1867 192.934 49V56H190.314V49.62C190.314 49.14 190.221 48.7267 190.034 48.38C189.848 48.0333 189.588 47.7667 189.254 47.58C188.934 47.38 188.554 47.28 188.114 47.28C187.688 47.28 187.308 47.38 186.974 47.58C186.641 47.7667 186.381 48.0333 186.194 48.38C186.008 48.7267 185.914 49.14 185.914 49.62V56H183.294ZM193.65 60.42C193.476 60.42 193.296 60.4133 193.11 60.4C192.923 60.3867 192.77 60.3667 192.65 60.34V58.06C192.89 58.1 193.13 58.12 193.37 58.12C193.93 58.12 194.363 57.9867 194.67 57.72C194.99 57.4667 195.15 57.0733 195.15 56.54V45.12H197.77V56.54C197.77 57.3667 197.603 58.0667 197.27 58.64C196.936 59.2267 196.456 59.6667 195.83 59.96C195.216 60.2667 194.49 60.42 193.65 60.42ZM195.15 43.9V41.1H197.77V43.9H195.15ZM203.489 56.24C202.729 56.24 202.069 56.1133 201.509 55.86C200.949 55.6067 200.515 55.2467 200.209 54.78C199.902 54.3 199.749 53.7467 199.749 53.12C199.749 52.52 199.882 51.9867 200.149 51.52C200.415 51.04 200.829 50.64 201.389 50.32C201.949 50 202.655 49.7733 203.509 49.64L207.069 49.06V51.06L204.009 51.58C203.489 51.6733 203.102 51.84 202.849 52.08C202.595 52.32 202.469 52.6333 202.469 53.02C202.469 53.3933 202.609 53.6933 202.889 53.92C203.182 54.1333 203.542 54.24 203.969 54.24C204.515 54.24 204.995 54.1267 205.409 53.9C205.835 53.66 206.162 53.3333 206.389 52.92C206.629 52.5067 206.749 52.0533 206.749 51.56V48.76C206.749 48.2933 206.562 47.9067 206.189 47.6C205.829 47.28 205.349 47.12 204.749 47.12C204.189 47.12 203.689 47.2733 203.249 47.58C202.822 47.8733 202.509 48.2667 202.309 48.76L200.169 47.72C200.382 47.1467 200.715 46.6533 201.169 46.24C201.635 45.8133 202.182 45.48 202.809 45.24C203.435 45 204.115 44.88 204.849 44.88C205.742 44.88 206.529 45.0467 207.209 45.38C207.889 45.7 208.415 46.1533 208.789 46.74C209.175 47.3133 209.369 47.9867 209.369 48.76V56H206.889V54.14L207.449 54.1C207.169 54.5667 206.835 54.96 206.449 55.28C206.062 55.5867 205.622 55.8267 205.129 56C204.635 56.16 204.089 56.24 203.489 56.24ZM211.79 56V45.12H214.25V47.64L213.97 47.22C214.17 46.4333 214.57 45.8467 215.17 45.46C215.77 45.0733 216.477 44.88 217.29 44.88C218.184 44.88 218.97 45.1133 219.65 45.58C220.33 46.0467 220.77 46.66 220.97 47.42L220.23 47.48C220.564 46.6133 221.064 45.9667 221.73 45.54C222.397 45.1 223.164 44.88 224.03 44.88C224.804 44.88 225.49 45.0533 226.09 45.4C226.704 45.7467 227.184 46.2333 227.53 46.86C227.877 47.4733 228.05 48.1867 228.05 49V56H225.43V49.62C225.43 49.14 225.344 48.7267 225.17 48.38C224.997 48.0333 224.757 47.7667 224.45 47.58C224.144 47.38 223.77 47.28 223.33 47.28C222.917 47.28 222.55 47.38 222.23 47.58C221.91 47.7667 221.664 48.0333 221.49 48.38C221.317 48.7267 221.23 49.14 221.23 49.62V56H218.61V49.62C218.61 49.14 218.524 48.7267 218.35 48.38C218.177 48.0333 217.93 47.7667 217.61 47.58C217.304 47.38 216.937 47.28 216.51 47.28C216.097 47.28 215.73 47.38 215.41 47.58C215.09 47.7667 214.844 48.0333 214.67 48.38C214.497 48.7267 214.41 49.14 214.41 49.62V56H211.79ZM230.267 56V45.12H232.887V56H230.267ZM230.267 43.9V41.1H232.887V43.9H230.267ZM235.306 56V45.12H237.766V47.26L237.566 46.88C237.819 46.2267 238.233 45.7333 238.806 45.4C239.393 45.0533 240.073 44.88 240.846 44.88C241.646 44.88 242.353 45.0533 242.966 45.4C243.593 45.7467 244.079 46.2333 244.426 46.86C244.773 47.4733 244.946 48.1867 244.946 49V56H242.326V49.62C242.326 49.14 242.233 48.7267 242.046 48.38C241.859 48.0333 241.599 47.7667 241.266 47.58C240.946 47.38 240.566 47.28 240.126 47.28C239.699 47.28 239.319 47.38 238.986 47.58C238.653 47.7667 238.393 48.0333 238.206 48.38C238.019 48.7267 237.926 49.14 237.926 49.62V56H235.306Z" fill="#181918"/>
<path d="M160.872 79.168C160.228 79.168 159.645 79.0233 159.122 78.734C158.609 78.4353 158.221 78.0153 157.96 77.474L158.128 77.32V79H157.078V68.402H158.128V73.176L157.96 72.882C158.259 72.406 158.655 72.028 159.15 71.748C159.654 71.468 160.228 71.328 160.872 71.328C161.581 71.328 162.211 71.5007 162.762 71.846C163.322 72.182 163.761 72.644 164.078 73.232C164.405 73.82 164.568 74.492 164.568 75.248C164.568 75.9947 164.405 76.6667 164.078 77.264C163.761 77.852 163.322 78.3187 162.762 78.664C162.211 79 161.581 79.168 160.872 79.168ZM160.816 78.118C161.32 78.118 161.768 77.992 162.16 77.74C162.561 77.488 162.874 77.1473 163.098 76.718C163.331 76.2793 163.448 75.7893 163.448 75.248C163.448 74.6973 163.331 74.2073 163.098 73.778C162.874 73.3487 162.561 73.008 162.16 72.756C161.768 72.504 161.32 72.378 160.816 72.378C160.312 72.378 159.855 72.504 159.444 72.756C159.043 73.008 158.721 73.3533 158.478 73.792C158.245 74.2213 158.128 74.7067 158.128 75.248C158.128 75.7893 158.245 76.2793 158.478 76.718C158.721 77.1473 159.043 77.488 159.444 77.74C159.855 77.992 160.312 78.118 160.816 78.118ZM169.832 79.168C169.132 79.168 168.497 79 167.928 78.664C167.368 78.3187 166.925 77.8473 166.598 77.25C166.271 76.6527 166.108 75.976 166.108 75.22C166.108 74.464 166.267 73.7967 166.584 73.218C166.901 72.63 167.331 72.168 167.872 71.832C168.423 71.496 169.039 71.328 169.72 71.328C170.261 71.328 170.742 71.4307 171.162 71.636C171.591 71.832 171.955 72.1027 172.254 72.448C172.553 72.784 172.781 73.1667 172.94 73.596C173.099 74.016 173.178 74.45 173.178 74.898C173.178 74.9913 173.173 75.0987 173.164 75.22C173.155 75.332 173.141 75.4487 173.122 75.57H166.78V74.59H172.52L172.016 75.01C172.1 74.4967 172.039 74.0393 171.834 73.638C171.638 73.2273 171.353 72.9053 170.98 72.672C170.607 72.4293 170.187 72.308 169.72 72.308C169.253 72.308 168.819 72.4293 168.418 72.672C168.026 72.9147 167.718 73.2553 167.494 73.694C167.27 74.1233 167.181 74.6367 167.228 75.234C167.181 75.8313 167.275 76.354 167.508 76.802C167.751 77.2407 168.077 77.5813 168.488 77.824C168.908 78.0667 169.356 78.188 169.832 78.188C170.383 78.188 170.845 78.0573 171.218 77.796C171.591 77.5347 171.895 77.208 172.128 76.816L173.024 77.292C172.875 77.628 172.646 77.9407 172.338 78.23C172.03 78.51 171.661 78.7387 171.232 78.916C170.812 79.084 170.345 79.168 169.832 79.168ZM175.029 79V71.496H176.079V72.952L175.841 72.896C176.028 72.4107 176.331 72.028 176.751 71.748C177.181 71.468 177.675 71.328 178.235 71.328C178.767 71.328 179.243 71.4493 179.663 71.692C180.093 71.9347 180.429 72.2707 180.671 72.7C180.923 73.12 181.049 73.596 181.049 74.128V79H179.999V74.534C179.999 74.0767 179.915 73.6893 179.747 73.372C179.589 73.0547 179.36 72.812 179.061 72.644C178.772 72.4667 178.436 72.378 178.053 72.378C177.671 72.378 177.33 72.4667 177.031 72.644C176.733 72.812 176.499 73.0593 176.331 73.386C176.163 73.7033 176.079 74.086 176.079 74.534V79H175.029ZM188.725 81.898C187.903 81.898 187.138 81.7487 186.429 81.45C185.729 81.1607 185.113 80.75 184.581 80.218C184.049 79.686 183.633 79.07 183.335 78.37C183.045 77.6607 182.901 76.9 182.901 76.088C182.901 75.276 183.05 74.52 183.349 73.82C183.647 73.12 184.058 72.5087 184.581 71.986C185.113 71.4633 185.733 71.0573 186.443 70.768C187.152 70.4693 187.913 70.32 188.725 70.32C189.565 70.32 190.339 70.4787 191.049 70.796C191.758 71.104 192.369 71.5287 192.883 72.07C193.405 72.602 193.807 73.2087 194.087 73.89C194.376 74.5713 194.521 75.2853 194.521 76.032C194.521 76.62 194.427 77.138 194.241 77.586C194.063 78.0247 193.802 78.37 193.457 78.622C193.111 78.874 192.696 79 192.211 79C191.921 79 191.646 78.9487 191.385 78.846C191.123 78.734 190.899 78.58 190.713 78.384C190.535 78.1787 190.414 77.936 190.349 77.656L190.573 77.838C190.423 78.09 190.237 78.3047 190.013 78.482C189.798 78.65 189.555 78.7807 189.285 78.874C189.014 78.958 188.72 79 188.403 79C187.861 79 187.371 78.8693 186.933 78.608C186.503 78.3467 186.163 77.992 185.911 77.544C185.659 77.096 185.533 76.5873 185.533 76.018C185.533 75.4487 185.659 74.94 185.911 74.492C186.163 74.044 186.503 73.6893 186.933 73.428C187.371 73.1573 187.861 73.022 188.403 73.022C188.86 73.022 189.275 73.1153 189.649 73.302C190.031 73.4887 190.335 73.75 190.559 74.086L190.461 74.254V73.162H191.371V77.026C191.371 77.3713 191.445 77.6233 191.595 77.782C191.753 77.9407 191.963 78.02 192.225 78.02C192.617 78.02 192.92 77.8567 193.135 77.53C193.359 77.2033 193.471 76.7133 193.471 76.06C193.471 75.388 193.354 74.7627 193.121 74.184C192.887 73.6053 192.561 73.1013 192.141 72.672C191.721 72.2427 191.221 71.9067 190.643 71.664C190.064 71.4213 189.425 71.3 188.725 71.3C188.043 71.3 187.409 71.4213 186.821 71.664C186.242 71.8973 185.738 72.2287 185.309 72.658C184.879 73.0873 184.543 73.5913 184.301 74.17C184.067 74.7487 183.951 75.3833 183.951 76.074C183.951 76.746 184.063 77.376 184.287 77.964C184.52 78.5427 184.847 79.0513 185.267 79.49C185.696 79.938 186.205 80.288 186.793 80.54C187.381 80.792 188.034 80.918 188.753 80.918C189.173 80.918 189.579 80.8713 189.971 80.778C190.363 80.694 190.717 80.5633 191.035 80.386L191.483 81.226C190.689 81.674 189.77 81.898 188.725 81.898ZM188.445 78.02C188.809 78.02 189.131 77.9313 189.411 77.754C189.691 77.5767 189.91 77.3387 190.069 77.04C190.237 76.732 190.321 76.3867 190.321 76.004C190.321 75.4253 190.143 74.954 189.789 74.59C189.434 74.2167 188.986 74.03 188.445 74.03C188.09 74.03 187.768 74.1187 187.479 74.296C187.199 74.464 186.979 74.6973 186.821 74.996C186.662 75.2947 186.583 75.6353 186.583 76.018C186.583 76.3913 186.662 76.732 186.821 77.04C186.989 77.3387 187.213 77.5767 187.493 77.754C187.773 77.9313 188.09 78.02 188.445 78.02ZM198.661 79.168C197.942 79.168 197.312 78.986 196.771 78.622C196.229 78.258 195.837 77.7633 195.595 77.138L196.477 76.718C196.691 77.1753 196.99 77.5393 197.373 77.81C197.765 78.0807 198.194 78.216 198.661 78.216C199.109 78.216 199.487 78.1087 199.795 77.894C200.103 77.67 200.257 77.3807 200.257 77.026C200.257 76.7647 200.182 76.5593 200.033 76.41C199.883 76.2513 199.711 76.13 199.515 76.046C199.319 75.962 199.146 75.9013 198.997 75.864L197.919 75.556C197.228 75.36 196.729 75.0847 196.421 74.73C196.113 74.3753 195.959 73.9647 195.959 73.498C195.959 73.0593 196.071 72.6767 196.295 72.35C196.519 72.0233 196.822 71.7713 197.205 71.594C197.587 71.4167 198.012 71.328 198.479 71.328C199.113 71.328 199.687 71.496 200.201 71.832C200.723 72.1587 201.092 72.616 201.307 73.204L200.411 73.624C200.224 73.204 199.953 72.8773 199.599 72.644C199.253 72.4013 198.866 72.28 198.437 72.28C198.017 72.28 197.681 72.3873 197.429 72.602C197.177 72.8167 197.051 73.0873 197.051 73.414C197.051 73.666 197.116 73.8667 197.247 74.016C197.377 74.1653 197.527 74.2773 197.695 74.352C197.872 74.4267 198.026 74.4827 198.157 74.52L199.403 74.884C200.009 75.0613 200.481 75.3367 200.817 75.71C201.162 76.0833 201.335 76.522 201.335 77.026C201.335 77.4367 201.218 77.8053 200.985 78.132C200.761 78.4587 200.448 78.7153 200.047 78.902C199.645 79.0793 199.183 79.168 198.661 79.168ZM203.18 79V68.402H204.23V72.952L203.992 72.896C204.178 72.4107 204.482 72.028 204.902 71.748C205.331 71.468 205.826 71.328 206.386 71.328C206.918 71.328 207.394 71.4493 207.814 71.692C208.243 71.9347 208.579 72.2707 208.822 72.7C209.074 73.12 209.2 73.596 209.2 74.128V79H208.15V74.534C208.15 74.0767 208.066 73.6893 207.898 73.372C207.73 73.0547 207.496 72.812 207.198 72.644C206.908 72.4667 206.577 72.378 206.204 72.378C205.83 72.378 205.494 72.4667 205.196 72.644C204.897 72.812 204.659 73.0593 204.482 73.386C204.314 73.7033 204.23 74.086 204.23 74.534V79H203.18ZM214.621 79.168C213.921 79.168 213.286 79 212.717 78.664C212.157 78.3187 211.714 77.8473 211.387 77.25C211.06 76.6527 210.897 75.976 210.897 75.22C210.897 74.464 211.056 73.7967 211.373 73.218C211.69 72.63 212.12 72.168 212.661 71.832C213.212 71.496 213.828 71.328 214.509 71.328C215.05 71.328 215.531 71.4307 215.951 71.636C216.38 71.832 216.744 72.1027 217.043 72.448C217.342 72.784 217.57 73.1667 217.729 73.596C217.888 74.016 217.967 74.45 217.967 74.898C217.967 74.9913 217.962 75.0987 217.953 75.22C217.944 75.332 217.93 75.4487 217.911 75.57H211.569V74.59H217.309L216.805 75.01C216.889 74.4967 216.828 74.0393 216.623 73.638C216.427 73.2273 216.142 72.9053 215.769 72.672C215.396 72.4293 214.976 72.308 214.509 72.308C214.042 72.308 213.608 72.4293 213.207 72.672C212.815 72.9147 212.507 73.2553 212.283 73.694C212.059 74.1233 211.97 74.6367 212.017 75.234C211.97 75.8313 212.064 76.354 212.297 76.802C212.54 77.2407 212.866 77.5813 213.277 77.824C213.697 78.0667 214.145 78.188 214.621 78.188C215.172 78.188 215.634 78.0573 216.007 77.796C216.38 77.5347 216.684 77.208 216.917 76.816L217.813 77.292C217.664 77.628 217.435 77.9407 217.127 78.23C216.819 78.51 216.45 78.7387 216.021 78.916C215.601 79.084 215.134 79.168 214.621 79.168ZM219.818 79V68.402H220.868V75.822L220.42 75.752L224.634 71.496H225.992L223.052 74.506L226.258 79H224.998L221.988 74.842L222.66 74.898L220.518 77.11L220.868 76.242V79H219.818ZM230.767 79.168C230.067 79.168 229.433 79 228.863 78.664C228.303 78.3187 227.86 77.8473 227.533 77.25C227.207 76.6527 227.043 75.976 227.043 75.22C227.043 74.464 227.202 73.7967 227.519 73.218C227.837 72.63 228.266 72.168 228.807 71.832C229.358 71.496 229.974 71.328 230.655 71.328C231.197 71.328 231.677 71.4307 232.097 71.636C232.527 71.832 232.891 72.1027 233.189 72.448C233.488 72.784 233.717 73.1667 233.875 73.596C234.034 74.016 234.113 74.45 234.113 74.898C234.113 74.9913 234.109 75.0987 234.099 75.22C234.09 75.332 234.076 75.4487 234.057 75.57H227.715V74.59H233.455L232.951 75.01C233.035 74.4967 232.975 74.0393 232.769 73.638C232.573 73.2273 232.289 72.9053 231.915 72.672C231.542 72.4293 231.122 72.308 230.655 72.308C230.189 72.308 229.755 72.4293 229.353 72.672C228.961 72.9147 228.653 73.2553 228.429 73.694C228.205 74.1233 228.117 74.6367 228.163 75.234C228.117 75.8313 228.21 76.354 228.443 76.802C228.686 77.2407 229.013 77.5813 229.423 77.824C229.843 78.0667 230.291 78.188 230.767 78.188C231.318 78.188 231.78 78.0573 232.153 77.796C232.527 77.5347 232.83 77.208 233.063 76.816L233.959 77.292C233.81 77.628 233.581 77.9407 233.273 78.23C232.965 78.51 232.597 78.7387 232.167 78.916C231.747 79.084 231.281 79.168 230.767 79.168ZM235.965 79V68.402H237.015V79H235.965ZM239.528 79V77.46H240.648V79H239.528ZM245.34 79.168C244.864 79.168 244.439 79.0793 244.066 78.902C243.692 78.7153 243.398 78.4633 243.184 78.146C242.969 77.8287 242.862 77.4647 242.862 77.054C242.862 76.662 242.946 76.3073 243.114 75.99C243.282 75.6633 243.543 75.388 243.898 75.164C244.252 74.94 244.705 74.7813 245.256 74.688L248.196 74.198V75.15L245.508 75.598C244.966 75.6913 244.574 75.864 244.332 76.116C244.098 76.368 243.982 76.6667 243.982 77.012C243.982 77.348 244.112 77.6327 244.374 77.866C244.644 78.0993 244.99 78.216 245.41 78.216C245.923 78.216 246.371 78.1087 246.754 77.894C247.136 77.67 247.435 77.3713 247.65 76.998C247.864 76.6247 247.972 76.2093 247.972 75.752V73.848C247.972 73.4 247.808 73.036 247.482 72.756C247.155 72.476 246.73 72.336 246.208 72.336C245.75 72.336 245.349 72.4527 245.004 72.686C244.658 72.91 244.402 73.204 244.234 73.568L243.282 73.05C243.422 72.7327 243.641 72.4433 243.94 72.182C244.248 71.9207 244.598 71.7153 244.99 71.566C245.382 71.4073 245.788 71.328 246.208 71.328C246.758 71.328 247.244 71.4353 247.664 71.65C248.093 71.8647 248.424 72.1633 248.658 72.546C248.9 72.9193 249.022 73.3533 249.022 73.848V79H247.972V77.502L248.126 77.656C247.995 77.936 247.79 78.1927 247.51 78.426C247.239 78.65 246.917 78.832 246.544 78.972C246.18 79.1027 245.778 79.168 245.34 79.168ZM251.952 79V72.546H250.454V71.496H251.952V70.824C251.952 70.3013 252.068 69.8627 252.302 69.508C252.535 69.144 252.843 68.8687 253.226 68.682C253.608 68.4953 254.019 68.402 254.458 68.402C254.551 68.402 254.658 68.4113 254.78 68.43C254.901 68.4393 254.999 68.4533 255.074 68.472V69.424C255.008 69.4053 254.92 69.396 254.808 69.396C254.696 69.3867 254.616 69.382 254.57 69.382C254.122 69.382 253.748 69.4893 253.45 69.704C253.151 69.9187 253.002 70.292 253.002 70.824V71.496H254.836V72.546H253.002V79H251.952ZM256.541 79V71.496H257.591V72.728L257.451 72.546C257.628 72.1913 257.894 71.9113 258.249 71.706C258.613 71.5007 259.052 71.398 259.565 71.398H260.041V72.448H259.383C258.842 72.448 258.408 72.616 258.081 72.952C257.754 73.288 257.591 73.764 257.591 74.38V79H256.541ZM261.271 79V71.496H262.321V79H261.271ZM261.271 70.11V68.57H262.321V70.11H261.271ZM267.901 79.168C267.163 79.168 266.515 78.9953 265.955 78.65C265.395 78.3047 264.956 77.838 264.639 77.25C264.321 76.6527 264.163 75.9807 264.163 75.234C264.163 74.4873 264.321 73.82 264.639 73.232C264.956 72.644 265.395 72.182 265.955 71.846C266.515 71.5007 267.163 71.328 267.901 71.328C268.367 71.328 268.806 71.412 269.217 71.58C269.627 71.748 269.991 71.9767 270.309 72.266C270.626 72.546 270.864 72.8727 271.023 73.246L270.071 73.736C269.884 73.3347 269.599 73.008 269.217 72.756C268.834 72.504 268.395 72.378 267.901 72.378C267.406 72.378 266.958 72.504 266.557 72.756C266.165 72.9987 265.852 73.3393 265.619 73.778C265.395 74.2073 265.283 74.6973 265.283 75.248C265.283 75.7893 265.395 76.2793 265.619 76.718C265.852 77.1473 266.165 77.488 266.557 77.74C266.958 77.992 267.406 78.118 267.901 78.118C268.395 78.118 268.829 77.992 269.203 77.74C269.585 77.488 269.875 77.152 270.071 76.732L271.023 77.25C270.864 77.614 270.626 77.9407 270.309 78.23C269.991 78.5193 269.627 78.748 269.217 78.916C268.806 79.084 268.367 79.168 267.901 79.168ZM274.898 79.168C274.422 79.168 273.998 79.0793 273.624 78.902C273.251 78.7153 272.957 78.4633 272.742 78.146C272.528 77.8287 272.42 77.4647 272.42 77.054C272.42 76.662 272.504 76.3073 272.672 75.99C272.84 75.6633 273.102 75.388 273.456 75.164C273.811 74.94 274.264 74.7813 274.814 74.688L277.754 74.198V75.15L275.066 75.598C274.525 75.6913 274.133 75.864 273.89 76.116C273.657 76.368 273.54 76.6667 273.54 77.012C273.54 77.348 273.671 77.6327 273.932 77.866C274.203 78.0993 274.548 78.216 274.968 78.216C275.482 78.216 275.93 78.1087 276.312 77.894C276.695 77.67 276.994 77.3713 277.208 76.998C277.423 76.6247 277.53 76.2093 277.53 75.752V73.848C277.53 73.4 277.367 73.036 277.04 72.756C276.714 72.476 276.289 72.336 275.766 72.336C275.309 72.336 274.908 72.4527 274.562 72.686C274.217 72.91 273.96 73.204 273.792 73.568L272.84 73.05C272.98 72.7327 273.2 72.4433 273.498 72.182C273.806 71.9207 274.156 71.7153 274.548 71.566C274.94 71.4073 275.346 71.328 275.766 71.328C276.317 71.328 276.802 71.4353 277.222 71.65C277.652 71.8647 277.983 72.1633 278.216 72.546C278.459 72.9193 278.58 73.3533 278.58 73.848V79H277.53V77.502L277.684 77.656C277.554 77.936 277.348 78.1927 277.068 78.426C276.798 78.65 276.476 78.832 276.102 78.972C275.738 79.1027 275.337 79.168 274.898 79.168Z" fill="#181918"/>
<path d="M161.992 100.168C161.255 100.168 160.578 100.037 159.962 99.776C159.346 99.5053 158.809 99.132 158.352 98.656C157.904 98.1707 157.554 97.6013 157.302 96.948C157.05 96.2947 156.924 95.576 156.924 94.792C156.924 94.008 157.05 93.2893 157.302 92.636C157.554 91.9827 157.904 91.4133 158.352 90.928C158.809 90.4427 159.346 90.0693 159.962 89.808C160.578 89.5373 161.255 89.402 161.992 89.402C162.701 89.402 163.336 89.528 163.896 89.78C164.465 90.032 164.941 90.3587 165.324 90.76C165.716 91.152 165.996 91.5673 166.164 92.006L165.114 92.468C164.853 91.8613 164.451 91.376 163.91 91.012C163.378 90.6387 162.739 90.452 161.992 90.452C161.227 90.452 160.545 90.634 159.948 90.998C159.351 91.362 158.884 91.8707 158.548 92.524C158.212 93.168 158.044 93.924 158.044 94.792C158.044 95.6507 158.212 96.4067 158.548 97.06C158.884 97.7133 159.351 98.222 159.948 98.586C160.545 98.9407 161.227 99.118 161.992 99.118C162.739 99.118 163.378 98.936 163.91 98.572C164.451 98.208 164.853 97.7227 165.114 97.116L166.164 97.578C165.996 98.0073 165.716 98.4227 165.324 98.824C164.941 99.216 164.465 99.538 163.896 99.79C163.336 100.042 162.701 100.168 161.992 100.168ZM171.393 100.168C170.683 100.168 170.039 100 169.461 99.664C168.882 99.3187 168.42 98.852 168.075 98.264C167.739 97.6667 167.571 96.99 167.571 96.234C167.571 95.4873 167.739 94.82 168.075 94.232C168.411 93.644 168.863 93.182 169.433 92.846C170.011 92.5007 170.665 92.328 171.393 92.328C172.121 92.328 172.769 92.496 173.339 92.832C173.917 93.168 174.37 93.63 174.697 94.218C175.033 94.806 175.201 95.478 175.201 96.234C175.201 96.9993 175.028 97.6807 174.683 98.278C174.337 98.866 173.875 99.328 173.297 99.664C172.727 100 172.093 100.168 171.393 100.168ZM171.393 99.118C171.897 99.118 172.349 98.992 172.751 98.74C173.161 98.488 173.483 98.1427 173.717 97.704C173.959 97.2653 174.081 96.7753 174.081 96.234C174.081 95.6927 173.959 95.2073 173.717 94.778C173.483 94.3487 173.161 94.008 172.751 93.756C172.349 93.504 171.897 93.378 171.393 93.378C170.889 93.378 170.431 93.504 170.021 93.756C169.619 94.008 169.297 94.3487 169.055 94.778C168.812 95.2073 168.691 95.6927 168.691 96.234C168.691 96.7753 168.812 97.2653 169.055 97.704C169.297 98.1427 169.619 98.488 170.021 98.74C170.431 98.992 170.889 99.118 171.393 99.118ZM177.417 100V98.46H178.537V100H177.417ZM184.207 100V93.546H182.709V92.496H184.207V91.824C184.207 91.3013 184.324 90.8627 184.557 90.508C184.791 90.144 185.099 89.8687 185.481 89.682C185.864 89.4953 186.275 89.402 186.713 89.402C186.807 89.402 186.914 89.4113 187.035 89.43C187.157 89.4393 187.255 89.4533 187.329 89.472V90.424C187.264 90.4053 187.175 90.396 187.063 90.396C186.951 90.3867 186.872 90.382 186.825 90.382C186.377 90.382 186.004 90.4893 185.705 90.704C185.407 90.9187 185.257 91.292 185.257 91.824V92.496H187.091V93.546H185.257V100H184.207ZM192.024 100.168C191.314 100.168 190.67 100 190.092 99.664C189.513 99.3187 189.051 98.852 188.706 98.264C188.37 97.6667 188.202 96.99 188.202 96.234C188.202 95.4873 188.37 94.82 188.706 94.232C189.042 93.644 189.494 93.182 190.064 92.846C190.642 92.5007 191.296 92.328 192.024 92.328C192.752 92.328 193.4 92.496 193.97 92.832C194.548 93.168 195.001 93.63 195.328 94.218C195.664 94.806 195.832 95.478 195.832 96.234C195.832 96.9993 195.659 97.6807 195.314 98.278C194.968 98.866 194.506 99.328 193.928 99.664C193.358 100 192.724 100.168 192.024 100.168ZM192.024 99.118C192.528 99.118 192.98 98.992 193.382 98.74C193.792 98.488 194.114 98.1427 194.348 97.704C194.59 97.2653 194.712 96.7753 194.712 96.234C194.712 95.6927 194.59 95.2073 194.348 94.778C194.114 94.3487 193.792 94.008 193.382 93.756C192.98 93.504 192.528 93.378 192.024 93.378C191.52 93.378 191.062 93.504 190.652 93.756C190.25 94.008 189.928 94.3487 189.686 94.778C189.443 95.2073 189.322 95.6927 189.322 96.234C189.322 96.7753 189.443 97.2653 189.686 97.704C189.928 98.1427 190.25 98.488 190.652 98.74C191.062 98.992 191.52 99.118 192.024 99.118ZM200.343 100.168C199.821 100.168 199.345 100.047 198.915 99.804C198.486 99.552 198.145 99.2067 197.893 98.768C197.651 98.32 197.529 97.8067 197.529 97.228V92.496H198.579V97.102C198.579 97.5033 198.659 97.858 198.817 98.166C198.985 98.4647 199.214 98.698 199.503 98.866C199.802 99.034 200.143 99.118 200.525 99.118C200.908 99.118 201.249 99.034 201.547 98.866C201.846 98.6887 202.079 98.4413 202.247 98.124C202.415 97.7973 202.499 97.41 202.499 96.962V92.496H203.549V100H202.499V98.544L202.737 98.6C202.56 99.0853 202.257 99.468 201.827 99.748C201.398 100.028 200.903 100.168 200.343 100.168ZM205.709 100V92.496H206.759V93.952L206.521 93.896C206.708 93.4107 207.011 93.028 207.431 92.748C207.86 92.468 208.355 92.328 208.915 92.328C209.447 92.328 209.923 92.4493 210.343 92.692C210.772 92.9347 211.108 93.2707 211.351 93.7C211.603 94.12 211.729 94.596 211.729 95.128V100H210.679V95.534C210.679 95.0767 210.595 94.6893 210.427 94.372C210.268 94.0547 210.04 93.812 209.741 93.644C209.452 93.4667 209.116 93.378 208.733 93.378C208.35 93.378 208.01 93.4667 207.711 93.644C207.412 93.812 207.179 94.0593 207.011 94.386C206.843 94.7033 206.759 95.086 206.759 95.534V100H205.709ZM217.122 100.168C216.422 100.168 215.792 100 215.232 99.664C214.672 99.3187 214.229 98.852 213.902 98.264C213.585 97.6667 213.426 96.9947 213.426 96.248C213.426 95.492 213.585 94.82 213.902 94.232C214.229 93.644 214.668 93.182 215.218 92.846C215.778 92.5007 216.413 92.328 217.122 92.328C217.766 92.328 218.34 92.468 218.844 92.748C219.348 93.028 219.745 93.406 220.034 93.882L219.866 94.176V89.402H220.916V100H219.866V98.32L220.034 98.474C219.773 99.0153 219.381 99.4353 218.858 99.734C218.345 100.023 217.766 100.168 217.122 100.168ZM217.178 99.118C217.682 99.118 218.135 98.992 218.536 98.74C218.947 98.488 219.269 98.1473 219.502 97.718C219.745 97.2793 219.866 96.7893 219.866 96.248C219.866 95.7067 219.745 95.2213 219.502 94.792C219.269 94.3533 218.947 94.008 218.536 93.756C218.135 93.504 217.682 93.378 217.178 93.378C216.684 93.378 216.236 93.504 215.834 93.756C215.433 94.008 215.116 94.3487 214.882 94.778C214.658 95.2073 214.546 95.6973 214.546 96.248C214.546 96.7893 214.658 97.2793 214.882 97.718C215.116 98.1473 215.428 98.488 215.82 98.74C216.222 98.992 216.674 99.118 217.178 99.118ZM226.488 100.168C225.788 100.168 225.153 100 224.584 99.664C224.024 99.3187 223.581 98.8473 223.254 98.25C222.927 97.6527 222.764 96.976 222.764 96.22C222.764 95.464 222.923 94.7967 223.24 94.218C223.557 93.63 223.987 93.168 224.528 92.832C225.079 92.496 225.695 92.328 226.376 92.328C226.917 92.328 227.398 92.4307 227.818 92.636C228.247 92.832 228.611 93.1027 228.91 93.448C229.209 93.784 229.437 94.1667 229.596 94.596C229.755 95.016 229.834 95.45 229.834 95.898C229.834 95.9913 229.829 96.0987 229.82 96.22C229.811 96.332 229.797 96.4487 229.778 96.57H223.436V95.59H229.176L228.672 96.01C228.756 95.4967 228.695 95.0393 228.49 94.638C228.294 94.2273 228.009 93.9053 227.636 93.672C227.263 93.4293 226.843 93.308 226.376 93.308C225.909 93.308 225.475 93.4293 225.074 93.672C224.682 93.9147 224.374 94.2553 224.15 94.694C223.926 95.1233 223.837 95.6367 223.884 96.234C223.837 96.8313 223.931 97.354 224.164 97.802C224.407 98.2407 224.733 98.5813 225.144 98.824C225.564 99.0667 226.012 99.188 226.488 99.188C227.039 99.188 227.501 99.0573 227.874 98.796C228.247 98.5347 228.551 98.208 228.784 97.816L229.68 98.292C229.531 98.628 229.302 98.9407 228.994 99.23C228.686 99.51 228.317 99.7387 227.888 99.916C227.468 100.084 227.001 100.168 226.488 100.168ZM231.685 100V92.496H232.735V93.728L232.595 93.546C232.773 93.1913 233.039 92.9113 233.393 92.706C233.757 92.5007 234.196 92.398 234.709 92.398H235.185V93.448H234.527C233.986 93.448 233.552 93.616 233.225 93.952C232.899 94.288 232.735 94.764 232.735 95.38V100H231.685Z" fill="#181918"/>
<circle cx="243.5" cy="94" r="2.5" fill="#181918"/>
<path d="M256.992 100.168C256.255 100.168 255.578 100.037 254.962 99.776C254.346 99.5053 253.809 99.132 253.352 98.656C252.904 98.1707 252.554 97.6013 252.302 96.948C252.05 96.2947 251.924 95.576 251.924 94.792C251.924 94.008 252.05 93.2893 252.302 92.636C252.554 91.9827 252.904 91.4133 253.352 90.928C253.809 90.4427 254.346 90.0693 254.962 89.808C255.578 89.5373 256.255 89.402 256.992 89.402C257.701 89.402 258.336 89.528 258.896 89.78C259.465 90.032 259.941 90.3587 260.324 90.76C260.716 91.152 260.996 91.5673 261.164 92.006L260.156 92.496C259.895 91.8613 259.493 91.362 258.952 90.998C258.411 90.634 257.757 90.452 256.992 90.452C256.227 90.452 255.545 90.634 254.948 90.998C254.351 91.362 253.884 91.8707 253.548 92.524C253.212 93.168 253.044 93.924 253.044 94.792C253.044 95.6507 253.212 96.4067 253.548 97.06C253.884 97.7133 254.351 98.222 254.948 98.586C255.545 98.9407 256.227 99.118 256.992 99.118C257.673 99.118 258.285 98.9687 258.826 98.67C259.377 98.3713 259.811 97.9653 260.128 97.452C260.445 96.9293 260.604 96.332 260.604 95.66V95.086L261.108 95.59H256.992V94.61H261.724V95.478C261.724 96.1593 261.603 96.7893 261.36 97.368C261.117 97.9373 260.781 98.432 260.352 98.852C259.923 99.272 259.419 99.5987 258.84 99.832C258.271 100.056 257.655 100.168 256.992 100.168ZM263.576 100V89.402H264.626V100H263.576ZM270.289 100.168C269.58 100.168 268.936 100 268.357 99.664C267.779 99.3187 267.317 98.852 266.971 98.264C266.635 97.6667 266.467 96.99 266.467 96.234C266.467 95.4873 266.635 94.82 266.971 94.232C267.307 93.644 267.76 93.182 268.329 92.846C268.908 92.5007 269.561 92.328 270.289 92.328C271.017 92.328 271.666 92.496 272.235 92.832C272.814 93.168 273.267 93.63 273.593 94.218C273.929 94.806 274.097 95.478 274.097 96.234C274.097 96.9993 273.925 97.6807 273.579 98.278C273.234 98.866 272.772 99.328 272.193 99.664C271.624 100 270.989 100.168 270.289 100.168ZM270.289 99.118C270.793 99.118 271.246 98.992 271.647 98.74C272.058 98.488 272.38 98.1427 272.613 97.704C272.856 97.2653 272.977 96.7753 272.977 96.234C272.977 95.6927 272.856 95.2073 272.613 94.778C272.38 94.3487 272.058 94.008 271.647 93.756C271.246 93.504 270.793 93.378 270.289 93.378C269.785 93.378 269.328 93.504 268.917 93.756C268.516 94.008 268.194 94.3487 267.951 94.778C267.709 95.2073 267.587 95.6927 267.587 96.234C267.587 96.7753 267.709 97.2653 267.951 97.704C268.194 98.1427 268.516 98.488 268.917 98.74C269.328 98.992 269.785 99.118 270.289 99.118ZM279.743 100.168C279.099 100.168 278.516 100.023 277.993 99.734C277.48 99.4353 277.092 99.0153 276.831 98.474L276.999 98.32V100H275.949V89.402H276.999V94.176L276.831 93.882C277.13 93.406 277.526 93.028 278.021 92.748C278.525 92.468 279.099 92.328 279.743 92.328C280.452 92.328 281.082 92.5007 281.633 92.846C282.193 93.182 282.632 93.644 282.949 94.232C283.276 94.82 283.439 95.492 283.439 96.248C283.439 96.9947 283.276 97.6667 282.949 98.264C282.632 98.852 282.193 99.3187 281.633 99.664C281.082 100 280.452 100.168 279.743 100.168ZM279.687 99.118C280.191 99.118 280.639 98.992 281.031 98.74C281.432 98.488 281.745 98.1473 281.969 97.718C282.202 97.2793 282.319 96.7893 282.319 96.248C282.319 95.6973 282.202 95.2073 281.969 94.778C281.745 94.3487 281.432 94.008 281.031 93.756C280.639 93.504 280.191 93.378 279.687 93.378C279.183 93.378 278.726 93.504 278.315 93.756C277.914 94.008 277.592 94.3533 277.349 94.792C277.116 95.2213 276.999 95.7067 276.999 96.248C276.999 96.7893 277.116 97.2793 277.349 97.718C277.592 98.1473 277.914 98.488 278.315 98.74C278.726 98.992 279.183 99.118 279.687 99.118ZM287.457 100.168C286.981 100.168 286.556 100.079 286.183 99.902C285.81 99.7153 285.516 99.4633 285.301 99.146C285.086 98.8287 284.979 98.4647 284.979 98.054C284.979 97.662 285.063 97.3073 285.231 96.99C285.399 96.6633 285.66 96.388 286.015 96.164C286.37 95.94 286.822 95.7813 287.373 95.688L290.313 95.198V96.15L287.625 96.598C287.084 96.6913 286.692 96.864 286.449 97.116C286.216 97.368 286.099 97.6667 286.099 98.012C286.099 98.348 286.23 98.6327 286.491 98.866C286.762 99.0993 287.107 99.216 287.527 99.216C288.04 99.216 288.488 99.1087 288.871 98.894C289.254 98.67 289.552 98.3713 289.767 97.998C289.982 97.6247 290.089 97.2093 290.089 96.752V94.848C290.089 94.4 289.926 94.036 289.599 93.756C289.272 93.476 288.848 93.336 288.325 93.336C287.868 93.336 287.466 93.4527 287.121 93.686C286.776 93.91 286.519 94.204 286.351 94.568L285.399 94.05C285.539 93.7327 285.758 93.4433 286.057 93.182C286.365 92.9207 286.715 92.7153 287.107 92.566C287.499 92.4073 287.905 92.328 288.325 92.328C288.876 92.328 289.361 92.4353 289.781 92.65C290.21 92.8647 290.542 93.1633 290.775 93.546C291.018 93.9193 291.139 94.3533 291.139 94.848V100H290.089V98.502L290.243 98.656C290.112 98.936 289.907 99.1927 289.627 99.426C289.356 99.65 289.034 99.832 288.661 99.972C288.297 100.103 287.896 100.168 287.457 100.168ZM293.299 100V89.402H294.349V100H293.299ZM297.953 100L301.761 89.57H302.965L306.773 100H305.597L304.701 97.452H300.039L299.129 100H297.953ZM300.403 96.402H304.309L302.195 90.41H302.531L300.403 96.402ZM311.124 100.168C310.424 100.168 309.794 100 309.234 99.664C308.674 99.3187 308.231 98.852 307.904 98.264C307.587 97.6667 307.428 96.9947 307.428 96.248C307.428 95.492 307.587 94.82 307.904 94.232C308.231 93.644 308.67 93.182 309.22 92.846C309.78 92.5007 310.415 92.328 311.124 92.328C311.768 92.328 312.342 92.468 312.846 92.748C313.35 93.028 313.747 93.406 314.036 93.882L313.868 94.176V89.402H314.918V100H313.868V98.32L314.036 98.474C313.775 99.0153 313.383 99.4353 312.86 99.734C312.347 100.023 311.768 100.168 311.124 100.168ZM311.18 99.118C311.684 99.118 312.137 98.992 312.538 98.74C312.949 98.488 313.271 98.1473 313.504 97.718C313.747 97.2793 313.868 96.7893 313.868 96.248C313.868 95.7067 313.747 95.2213 313.504 94.792C313.271 94.3533 312.949 94.008 312.538 93.756C312.137 93.504 311.684 93.378 311.18 93.378C310.686 93.378 310.238 93.504 309.836 93.756C309.435 94.008 309.118 94.3487 308.884 94.778C308.66 95.2073 308.548 95.6973 308.548 96.248C308.548 96.7893 308.66 97.2793 308.884 97.718C309.118 98.1473 309.43 98.488 309.822 98.74C310.224 98.992 310.676 99.118 311.18 99.118ZM317.074 100V92.496H318.124V93.924L317.956 93.714C318.161 93.2753 318.465 92.9347 318.866 92.692C319.277 92.4493 319.725 92.328 320.21 92.328C320.789 92.328 321.311 92.4913 321.778 92.818C322.245 93.1447 322.576 93.5693 322.772 94.092L322.478 94.106C322.665 93.5273 322.987 93.0887 323.444 92.79C323.911 92.482 324.424 92.328 324.984 92.328C325.488 92.328 325.95 92.4493 326.37 92.692C326.799 92.9347 327.14 93.2707 327.392 93.7C327.653 94.12 327.784 94.596 327.784 95.128V100H326.734V95.534C326.734 95.0767 326.65 94.6893 326.482 94.372C326.323 94.0547 326.104 93.812 325.824 93.644C325.544 93.4667 325.222 93.378 324.858 93.378C324.503 93.378 324.181 93.4667 323.892 93.644C323.603 93.812 323.374 94.0593 323.206 94.386C323.038 94.7033 322.954 95.086 322.954 95.534V100H321.904V95.534C321.904 95.0767 321.82 94.6893 321.652 94.372C321.493 94.0547 321.274 93.812 320.994 93.644C320.714 93.4667 320.392 93.378 320.028 93.378C319.664 93.378 319.337 93.4667 319.048 93.644C318.768 93.812 318.544 94.0593 318.376 94.386C318.208 94.7033 318.124 95.086 318.124 95.534V100H317.074ZM329.789 100V92.496H330.839V100H329.789ZM329.789 91.11V89.57H330.839V91.11H329.789ZM332.988 100V92.496H334.038V93.952L333.8 93.896C333.987 93.4107 334.29 93.028 334.71 92.748C335.139 92.468 335.634 92.328 336.194 92.328C336.726 92.328 337.202 92.4493 337.622 92.692C338.051 92.9347 338.387 93.2707 338.63 93.7C338.882 94.12 339.008 94.596 339.008 95.128V100H337.958V95.534C337.958 95.0767 337.874 94.6893 337.706 94.372C337.547 94.0547 337.319 93.812 337.02 93.644C336.731 93.4667 336.395 93.378 336.012 93.378C335.629 93.378 335.289 93.4667 334.99 93.644C334.691 93.812 334.458 94.0593 334.29 94.386C334.122 94.7033 334.038 95.086 334.038 95.534V100H332.988Z" fill="#181918"/>
</g>
<mask id="path-17-inside-1_683_56525" fill="white">
<path d="M0 31C0 22.1634 7.16344 15 16 15H330C338.837 15 346 22.1634 346 31V114C346 122.837 338.837 130 330 130H16C7.16344 130 0 122.837 0 114V31Z"/>
</mask>
<path d="M0 31C0 22.1634 7.16344 15 16 15H330C338.837 15 346 22.1634 346 31V114C346 122.837 338.837 130 330 130H16C7.16344 130 0 122.837 0 114V31Z" fill="#FDFDFD"/>
<path d="M-0.5 31C-0.5 21.8873 6.8873 14.5 16 14.5H329.5C338.613 14.5 346 21.8873 346 31C346 22.4396 338.837 15.5 330 15.5H16C7.43959 15.5 0.5 22.4396 0.5 31H-0.5ZM0.5 31M346 130H0H346M16 130C6.8873 130 -0.5 122.613 -0.5 113.5V31C-0.5 21.8873 6.8873 14.5 16 14.5V15.5C7.43959 15.5 0.5 22.4396 0.5 31V114C0.5 122.837 7.43959 130 16 130ZM16 130M346 15V130V15" fill="url(#paint2_linear_683_56525)" mask="url(#path-17-inside-1_683_56525)"/>
<defs>
<linearGradient id="paint0_linear_683_56525" x1="59" y1="49" x2="286" y2="98" gradientUnits="userSpaceOnUse">
<stop stop-color="#2B2A2A"/>
<stop offset="1" stop-color="white"/>
</linearGradient>
<linearGradient id="paint1_linear_683_56525" x1="78.362" y1="49.1226" x2="284.411" y2="82.1461" gradientUnits="userSpaceOnUse">
<stop stop-color="#2B2A2A"/>
<stop offset="1" stop-color="white"/>
</linearGradient>
<linearGradient id="paint2_linear_683_56525" x1="-5.20861e-07" y1="-8.5" x2="70.9255" y2="193.231" gradientUnits="userSpaceOnUse">
<stop stop-color="#8E3530"/>
<stop offset="0.575999" stop-color="white"/>
</linearGradient>
</defs>
</svg>
