<svg width="41" height="54" viewBox="0 0 41 54" fill="none" xmlns="http://www.w3.org/2000/svg">
<path opacity="0.5" d="M31.6185 35.0654C24.3544 30.874 12.6094 30.874 5.39141 35.0654C-1.82664 39.2567 -1.79374 46.0496 5.47036 50.2344C12.741 54.4257 24.486 54.4257 31.7106 50.2344C38.9286 46.043 38.8892 39.2567 31.6185 35.0654Z" fill="#AFAAA1"/>
<path d="M25.4769 28.1137C25.4769 28.1137 25.4243 28.0809 25.398 28.0677C24.5557 27.5816 23.1937 27.5816 22.3581 28.0677L7.60617 36.6278C7.15875 36.884 6.92188 37.2322 6.92188 37.5804L7.57328 48.6106L22.3252 40.0505C23.1608 39.5644 24.5228 39.5644 25.3651 40.0505C25.3914 40.0636 25.4177 40.0834 25.444 40.0965C25.8059 40.3264 25.9704 40.6155 25.9704 40.9045L26.0033 28.9218C26.0033 28.6327 25.8322 28.3437 25.4769 28.1137Z" fill="url(#paint0_linear_3503_145677)"/>
<path d="M31.3807 31.5213C31.3807 31.5213 31.3281 31.4885 31.3018 31.4753C30.4267 31.0221 29.0778 31.0943 28.2619 31.5739L23.9061 34.1032C23.0968 34.5696 21.7874 34.5696 20.9781 34.1032C20.5701 33.8666 20.3662 33.5579 20.3727 33.2557L20.3398 45.2385C20.3398 45.5472 20.5438 45.856 20.9452 46.0859C21.7545 46.5524 23.0705 46.5524 23.8732 46.0859L28.229 43.5567C29.0449 43.0837 30.4004 43.0114 31.2689 43.4581C31.2952 43.4713 31.3215 43.491 31.3478 43.5041C31.769 43.7472 31.9795 44.0691 31.9795 44.391L32.0124 32.4082C32.0124 32.0863 31.8019 31.7644 31.3807 31.5213Z" fill="url(#paint1_linear_3503_145677)"/>
<path d="M37.4468 35.02C37.4468 35.02 37.3941 34.9871 37.3678 34.974C36.5256 34.4878 35.1636 34.4878 34.3279 34.974L29.8866 37.5558C29.0772 38.0222 27.7679 38.0222 26.9586 37.5558C26.5506 37.3193 26.3466 37.0105 26.3532 36.7083L26.3203 48.6911C26.3203 48.9999 26.5243 49.3086 26.9257 49.5386C27.735 50.005 29.0509 50.005 29.8537 49.5386L34.295 46.9568C35.1307 46.4706 36.4927 46.4706 37.3349 46.9568C37.3612 46.9699 37.3875 46.9896 37.4139 47.0027C37.7692 47.2327 37.9402 47.5217 37.9402 47.8174L37.9731 35.8346C37.9731 35.5455 37.8021 35.2499 37.4468 35.02Z" fill="url(#paint2_linear_3503_145677)"/>
<path d="M11.3281 40.1915L12.9336 48.7647C13.2363 50.3677 15.0391 51.1954 16.4538 50.3743L17.9145 49.5268C18.3159 49.2969 18.5133 48.9947 18.5133 48.6859L18.5462 36.7031L11.3281 40.185V40.1915Z" fill="#CFCFC7"/>
<path d="M23.9383 41.0037L19.5561 42.8892C19.1087 43.1454 18.3783 43.5987 18.3783 43.9403C16.7531 46.4367 19.6285 49.8791 23.9054 52.9799C24.3067 52.75 24.5041 52.4478 24.5041 52.139L24.537 40.1562C24.537 40.4584 24.3396 40.7606 23.9383 40.9971V41.0037Z" fill="#CFCFC7"/>
<path d="M35.6108 44.29C28.3928 48.4814 16.6413 48.4814 9.37059 44.29C5.71222 42.1812 3.88962 39.4154 3.8962 36.6562L3.8633 42.5162C3.85672 45.282 5.67932 48.0478 9.33769 50.15C16.6084 54.3413 28.3533 54.3413 35.5779 50.15C39.1639 48.0675 40.9602 45.3477 40.9668 42.6214L40.9997 36.7614C40.9931 39.4877 39.1968 42.214 35.6108 44.29Z" fill="url(#paint3_linear_3503_145677)"/>
<path d="M35.5194 29.1123C42.7901 33.3036 42.8296 40.0965 35.6115 44.2812C28.3935 48.4726 16.642 48.4726 9.37128 44.2812C2.10718 40.0899 2.0677 33.297 9.29232 29.1123C16.5104 24.9209 28.2553 24.9209 35.5194 29.1123ZM22.544 45.3324L37.2959 36.7723C38.1118 36.2993 38.2303 35.511 37.4539 35.0117C37.4275 34.9985 37.4012 34.9788 37.3749 34.9657C36.5327 34.4795 35.1707 34.4795 34.335 34.9657L29.8937 37.5475C29.0844 38.0139 27.775 38.0139 26.9657 37.5475C26.1563 37.0811 26.1563 36.3256 26.9657 35.8526L31.407 33.2708C32.2427 32.7846 32.2361 31.9963 31.3939 31.5101C31.3675 31.497 31.3412 31.4773 31.3149 31.4641C30.4464 31.0108 29.0909 31.0831 28.275 31.5627L23.9192 34.0919C23.1099 34.5584 21.8005 34.5584 20.9912 34.0919C20.1819 33.6255 20.1819 32.87 20.9912 32.397L25.347 29.8677C26.1629 29.3947 26.2814 28.613 25.5049 28.1071C25.4786 28.094 25.4523 28.0743 25.426 28.0611C24.5838 27.575 23.2218 27.575 22.3861 28.0611L7.63421 36.6212C6.81173 37.1008 6.6933 37.8825 7.47629 38.3818C7.50261 38.395 7.52893 38.4147 7.55525 38.4278C8.39747 38.914 9.75948 38.914 10.5951 38.4278L15.0365 35.846C15.8392 35.3796 17.1486 35.3796 17.9579 35.846C18.7672 36.3124 18.7738 37.0745 17.9711 37.5409L13.6152 40.0702C12.7928 40.5498 12.6743 41.3315 13.4573 41.8308C13.4837 41.844 13.51 41.8637 13.5363 41.8768C14.3785 42.3629 15.7405 42.3629 16.5762 41.8768L21.0175 39.295C21.8203 38.8285 23.1296 38.8285 23.939 39.295C24.7483 39.7614 24.7548 40.5235 23.9521 40.9899L19.5963 43.5192C18.7738 43.9987 18.6554 44.7805 19.4384 45.2798C19.4647 45.2929 19.491 45.3126 19.5173 45.3258C20.3595 45.8119 21.7216 45.8119 22.5638 45.3258L22.544 45.3324Z" fill="url(#paint4_linear_3503_145677)"/>
<path d="M20.9974 39.3094C21.5435 38.994 22.3199 38.8955 23.0174 39.0072V9.10938H19.1484V40.3802L20.9908 39.3094H20.9974Z" fill="#403636"/>
<path d="M26.534 1.85938H15.7431C14.2429 3.28496 13.3086 5.28865 13.3086 7.51572C13.3086 11.8319 16.8156 15.3334 21.1386 15.3334C25.4615 15.3334 28.9685 11.8319 28.9685 7.51572C28.9685 5.28865 28.0276 3.28496 26.534 1.85938Z" fill="url(#paint5_radial_3503_145677)"/>
<path d="M25.5151 1.04455C27.9365 2.43728 27.9365 4.69719 25.5151 6.08993C23.0938 7.48266 19.1788 7.48266 16.7574 6.08993C14.3361 4.69719 14.3361 2.43728 16.7574 1.04455C19.1788 -0.348184 23.0938 -0.348184 25.5151 1.04455Z" fill="#504444"/>
<path d="M24.6314 1.55925C22.7036 0.449001 19.5847 0.449001 17.6568 1.55925C15.729 2.66949 15.729 4.46954 17.6568 5.57978C19.5847 6.69003 22.7036 6.69003 24.6314 5.57978C26.5593 4.46954 26.5593 2.66949 24.6314 1.55925ZM24.1511 5.30386C22.4864 6.26301 19.7953 6.26301 18.1372 5.30386C16.4725 4.34472 16.4725 2.79431 18.1372 1.83517C19.8019 0.876019 22.493 0.876019 24.1511 1.83517C25.8158 2.79431 25.8158 4.34472 24.1511 5.30386Z" fill="#FFCC33"/>
<defs>
<linearGradient id="paint0_linear_3503_145677" x1="25.977" y1="38.1585" x2="14.8834" y2="38.1585" gradientUnits="userSpaceOnUse">
<stop stop-color="#B2B1AB"/>
<stop offset="1" stop-color="#CFCFC7"/>
</linearGradient>
<linearGradient id="paint1_linear_3503_145677" x1="32.4862" y1="38.8069" x2="14.4443" y2="38.8069" gradientUnits="userSpaceOnUse">
<stop stop-color="#B2B1AB"/>
<stop offset="1" stop-color="#CFCFC7"/>
</linearGradient>
<linearGradient id="paint2_linear_3503_145677" x1="38.006" y1="42.2464" x2="26.4519" y2="42.2464" gradientUnits="userSpaceOnUse">
<stop stop-color="#B2B1AB"/>
<stop offset="1" stop-color="#CFCFC7"/>
</linearGradient>
<linearGradient id="paint3_linear_3503_145677" x1="3.8633" y1="44.9732" x2="40.9997" y2="44.9732" gradientUnits="userSpaceOnUse">
<stop stop-color="#B2B1AB"/>
<stop offset="1" stop-color="#CFCFC7"/>
</linearGradient>
<linearGradient id="paint4_linear_3503_145677" x1="3.89688" y1="36.7" x2="41.0004" y2="36.7" gradientUnits="userSpaceOnUse">
<stop offset="0.61" stop-color="#DCDCD3"/>
<stop offset="0.62" stop-color="#ECECE2"/>
</linearGradient>
<radialGradient id="paint5_radial_3503_145677" cx="0" cy="0" r="1" gradientUnits="userSpaceOnUse" gradientTransform="translate(23.2244 0.499489) scale(16.4956 16.4697)">
<stop stop-color="#3F3535"/>
<stop offset="1" stop-color="#332C2C"/>
</radialGradient>
</defs>
</svg>
